<?xml version="1.0" standalone="no"?>
<!DOCTYPE svg PUBLIC "-//W3C//DTD SVG 1.1//EN" "http://www.w3.org/Graphics/SVG/1.1/DTD/svg11.dtd" >
<svg xmlns="http://www.w3.org/2000/svg">
<metadata></metadata>
<defs>
<font id="bernhard_modern_romanregular" horiz-adv-x="1138" >
<font-face units-per-em="2048" ascent="1638" descent="-410" />
<missing-glyph horiz-adv-x="454" />
<glyph horiz-adv-x="2048" />
<glyph horiz-adv-x="2048" />
<glyph unicode="&#xd;" horiz-adv-x="454" />
<glyph unicode=" "  horiz-adv-x="454" />
<glyph unicode="&#x09;" horiz-adv-x="454" />
<glyph unicode="&#xa0;" horiz-adv-x="454" />
<glyph unicode="!" horiz-adv-x="493" d="M135 76q0 43 30 71.5t71 28.5t70.5 -28.5t29.5 -71.5t-30 -72t-70 -29q-41 0 -71 29t-30 72zM162 1235q0 31 49 61.5t78 30.5q33 0 33 -43q0 35 -27 -393q-17 -227 -35 -510q-2 -51 -24 -51q-18 0 -23 51q-14 199 -16 367q-2 74 -18.5 264t-16.5 223z" />
<glyph unicode="&#x22;" horiz-adv-x="606" d="M80 1296q0 31 35 31h88q35 0 35 -31q-1 -20 -9 -73l-49 -320q-14 -53 -20 -53q-8 0 -23 53l-49 320q-8 53 -8 73zM369 1296q0 31 34 31h89q35 0 34 -31q0 -20 -8 -73l-49 -320q-14 -53 -20 -53q-8 0 -23 53l-49 320q-8 53 -8 73z" />
<glyph unicode="#" horiz-adv-x="1478" d="M119 399l16 86h330l37 256h-318l17 86h315l70 465h86l-70 -465h330l69 465h86l-69 -465h340l-17 -86h-335l-39 -256h327l-16 -86h-324l-63 -424h-86l61 424h-329l-62 -424h-86l62 424h-332zM551 485h330l37 256h-330z" />
<glyph unicode="$" d="M115 369q0 59 26 59q12 0 27 -39q98 -248 391 -323v526q-182 39 -252 78q-154 82 -153 250q0 162 133 266q117 92 272 106q0 74 -16 264l90 33q-27 -186 -27 -297q131 0 234 -51q141 -72 141 -223q0 -78 -29 -78q-10 0 -28 35q-98 180 -318 231v-467q207 -47 271 -82 q156 -82 155 -254q0 -195 -153 -321q-132 -107 -273 -107v-188q0 -78 -24 -78q-23 0 -23 78v188q-178 10 -297 95q-147 104 -147 299zM227 983q0 -109 125 -170q57 -28 207 -65v460q-156 0 -244 -59t-88 -166zM606 59q162 0 260 82q92 76 92 187q0 121 -133 186 q-41 21 -219 68v-523z" />
<glyph unicode="%" horiz-adv-x="1669" d="M90 840q0 193 82 317q90 135 242 135q143 0 213 -125q55 -102 55 -268q0 -193 -82 -317q-90 -135 -242 -136q-143 0 -213 127q-55 100 -55 267zM201 893q0 -399 178 -399q193 0 192 352q0 399 -178 399q-193 0 -192 -352zM442 0l725 1292h68l-725 -1292h-68zM985 393 q0 193 82 318q90 135 242 135q143 0 213 -125q55 -102 55 -268q0 -193 -82 -318q-90 -135 -242 -135q-143 0 -213 127q-55 100 -55 266zM1096 446q0 -399 178 -399q193 0 192 352q0 399 -178 400q-193 0 -192 -353z" />
<glyph unicode="&#x26;" horiz-adv-x="1327" d="M104 401q0 182 127 304q104 98 220 108v4q-150 94 -150 246q0 127 92 201q82 63 199 63q115 0 201 -67q72 -55 71 -97q0 -14 -14 -14q-8 0 -23 14q-20 20 -36 33q-74 51 -152 51q-82 0 -141 -57q-68 -61 -68 -158q0 -92 74 -211h16q63 0 135 -29.5t72 -60.5 q0 -20 -22 -20q-2 0 -51.5 10t-90.5 10q-121 0 -205 -90q-90 -94 -90 -240q0 -160 105.5 -264t255.5 -104q160 0 264 100t104 242q0 86 -57 196q-70 -33 -111 -53q-82 -43 -145 -90q-49 -35 -63 -88q0 -2 -13 -78q0 -18 -18 -18q-27 0 -27 80q0 168 142 256q123 78 411 206 q141 63 141 158q0 72 -38 72q-25 0 -32 -27.5t-13 -52.5q-10 -41 -62 -41q-70 0 -70 76q0 43 38 72.5t85 29.5q57 0 97.5 -42t40.5 -116q0 -125 -119 -213q-16 -12 -203 -110q59 -123 59 -215q0 -182 -139 -301q-131 -111 -317 -111q-195 0 -332 115q-147 123 -148 321z" />
<glyph unicode="'" horiz-adv-x="303" d="M72 1296q0 31 34 31h89q35 0 34 -31q0 -20 -8 -73l-49 -320q-14 -53 -20 -53q-8 0 -23 53l-49 320q-8 53 -8 73z" />
<glyph unicode="(" horiz-adv-x="569" d="M164 518q0 223 80 445q61 172 155 305q80 113 113 112q14 0 14 -12q0 -6 -10 -20q-16 -20 -22 -33q-197 -367 -197 -797t197 -797q6 -12 22 -32q10 -14 10 -21q0 -12 -14 -12q-33 0 -113 113q-94 133 -155 305q-80 221 -80 444z" />
<glyph unicode=")" horiz-adv-x="569" d="M43 -332q0 6 13.5 23.5t19.5 29.5q197 367 196 797q0 430 -196 797q-6 12 -23 33q-10 14 -10 20q0 12 14 12q33 0 113 -112q94 -133 156 -305q80 -222 80 -445t-80 -444q-61 -172 -156 -305q-80 -113 -113 -113q-14 0 -14 12z" />
<glyph unicode="*" horiz-adv-x="909" d="M223 961q0 41 90 62t90 40q0 18 -90 39.5t-90 62.5q0 51 51 52q27 0 119 -93q16 -16 29 -16q16 0 16 16q0 2 -8 37q-29 119 -29 117q0 49 54 49q53 0 53 -49q0 2 -29 -117q-8 -35 -8 -37q0 -16 16 -16q12 0 29 16q92 92 119 93q51 0 51 -52q0 -41 -90 -62.5t-90 -39.5 t90 -40t90 -62q0 -51 -51 -52q-27 0 -119 92q-16 16 -29 17q-16 0 -16 -17q0 -2 8 -36q29 -119 29 -117q0 -49 -53 -49t-54 49q0 -2 29 117q8 35 8 36q0 16 -16 17q-12 0 -29 -17q-92 -92 -119 -92q-51 0 -51 52z" />
<glyph unicode="+" d="M78 451v84h446v450h90v-450h447v-84h-447v-451h-90v451h-446z" />
<glyph unicode="," horiz-adv-x="454" d="M80 -283q0 10 26 103q27 100 33 155q10 98 11 201q8 31 88 31q90 0 90 -41q-1 -12 -58 -139q-82 -180 -129 -287q-20 -47 -37 -47q-25 0 -24 24z" />
<glyph unicode="-" horiz-adv-x="796" d="M109 270v107h579v-107h-579z" />
<glyph unicode="." horiz-adv-x="454" d="M127 76q0 41 29.5 70.5t70.5 29.5t71 -29.5t30 -70.5t-30 -71t-71 -30t-70.5 30t-29.5 71z" />
<glyph unicode="/" horiz-adv-x="530" d="M20 -35l414 1362h74l-414 -1362h-74z" />
<glyph unicode="0" d="M111 600q0 311 136 501.5t367 190.5q221 0 326 -186q86 -152 86 -408q0 -313 -125 -510q-133 -213 -369 -213q-227 0 -337 220q-84 166 -84 405zM262 643q0 -252 60 -410q77 -210 251 -210t250 225q51 150 51 373q0 625 -294 624q-317 0 -318 -602z" />
<glyph unicode="1" d="M223 1159q0 29 88 29q115 0 236 52t112 52q14 0 15 -16q0 -39 -6 -109q-6 -80 -6 -108q-6 -174 -7 -414q0 -457 7 -594q72 -4 225 -20q39 -7 39 -25t-21 -18q2 0 -118.5 6t-200.5 6q-84 0 -211 -6t-125 -6q-20 0 -21 18q0 20 39 25q96 8 246 20q6 137 6 594q0 340 -6 512 q-139 -20 -254 -20q-37 0 -37 22z" />
<glyph unicode="2" d="M78 12q0 16 55 58q104 80 139 108q260 221 363 338q190 221 190 412q0 113 -80.5 182.5t-189.5 69.5q-125 0 -258 -103q-80 -61 -125 -157q-35 -78 -47 -78q-21 0 -21 20q0 43 60 139q72 117 174 193q133 98 291 98q145 0 243 -84q104 -92 105 -245q0 -207 -322 -529 q-186 -188 -434 -373l4 -4q397 8 699 84q8 84 28 199q14 35 25 35q12 0 12 -17q0 2 -6 -115.5t-6 -172.5q0 -47 6 -116t6 -71q0 -20 -20 -20q-18 0 -43 121q-215 20 -414 20q-143 0 -276.5 -6t-126.5 -6q-31 0 -31 20z" />
<glyph unicode="3" d="M59 190q0 18 19 19q8 0 67 -45q72 -53 136 -80q100 -45 206 -45q152 0 248 79t96 208q0 131 -114 206q-96 66 -225 66q-47 0 -122 -16l-75 -17q-20 0 -21 19q0 31 118 70.5t204 39.5h29q18 -2 26 -2q135 129 135 252q0 117 -77.5 184.5t-196.5 67.5q-98 0 -186 -51 q-57 -33 -121 -92q-51 -51 -60 -52q-20 0 -20 19q0 18 57 80q74 78 164 127q121 66 248 65q127 0 213 -63q96 -74 96 -201q0 -111 -76 -219q-57 -82 -129 -127q275 -68 275 -330q0 -164 -132 -270.5t-323 -106.5q-160 0 -321 97q-137 82 -138 118z" />
<glyph unicode="4" d="M72 330q0 8 57 94l559 831q35 51 51 52q18 0 19 -27q-10 -366 -10 -864h200q12 195 39 248q2 8 14 8q14 0 15 -15l-6 -123q-6 -124 -6 -165t6 -109l6 -67q0 -27 -19 -27q-35 0 -49 141q-82 8 -200 8q0 -203 6 -264q55 -6 176 -20q39 -6 39 -25q0 -18 -21 -18q4 0 -97 6 t-173 6q-80 0 -194.5 -6t-112.5 -6q-20 0 -21 18q0 18 39 25q84 8 217 20q6 61 6 264q-74 0 -283.5 -4t-224.5 -4q-33 0 -32 23zM182 416h430q0 74 2 327.5t2 317.5h-4z" />
<glyph unicode="5" d="M141 266q0 66 27 127q16 39 39 39t28 -38t9 -77q27 -98 112 -172q94 -80 211 -79q147 0 241.5 87t94.5 220q0 135 -106.5 223t-261.5 88q-109 0 -216.5 -48t-111.5 -48q-25 0 -25 18q0 6 23 78l182 584h387q84 0 125 22q23 14 41 45q12 23 29 23q18 0 18 -23 q0 -57 -67 -145q-61 -66 -166 -66h-353l-110 -329q135 45 258 45q182 0 305 -88q139 -102 139 -287q0 -205 -152.5 -347.5t-359.5 -142.5q-141 0 -240.5 84t-99.5 207z" />
<glyph unicode="6" d="M109 502q0 279 172 522q121 170 297 309q143 111 180 111q20 0 20 -21q0 -12 -47 -49q-211 -170 -303 -310t-156 -378l4 -4q145 215 365 215q168 0 277.5 -123t109.5 -297q0 -209 -127 -352q-133 -150 -342 -150q-199 0 -324.5 143.5t-125.5 383.5zM264 451 q0 -164 66 -281q79 -147 229 -147q168 0 252 143q66 113 66 285q0 158 -81 264t-210 106t-221 -98q-100 -104 -101 -272z" />
<glyph unicode="7" d="M193 963q0 2 6 88t6 145q0 51 -6 122t-6 75q0 16 14 16q25 0 49 -119q172 -22 524 -22h219q10 16 19.5 26.5t28.5 10.5q31 0 30 -25q0 -12 -35 -66q-63 -98 -94 -149q-160 -268 -254 -606q-68 -238 -82 -410q158 -8 234 -24q14 -4 14 -17q0 -20 -20 -20q10 0 -94.5 6 t-208.5 6t-209 -6t-95 -6q-20 0 -20 20q0 12 14 17q63 16 211 24q113 373 226 619q106 238 297 536q-236 -4 -345 -12q-199 -16 -360 -59q-8 -63 -18 -123q-12 -66 -25 -66q-20 0 -20 19z" />
<glyph unicode="8" d="M104 328q0 213 318 346q-106 57 -139 90q-76 74 -76 188q0 131 119.5 235.5t277.5 104.5q119 0 213 -67q111 -80 111 -217q0 -186 -228 -291q164 -76 213 -115q103 -86 103 -221q0 -180 -160 -297q-145 -109 -338 -109q-156 0 -270 80q-143 96 -144 273zM244 395 q0 -147 123 -250q112 -92 251 -92q127 0 212 70t85 178q0 117 -131 199q-55 35 -176 88q-61 29 -123 55q-242 -92 -241 -248zM295 1034q0 -109 129 -188q35 -23 215 -103q178 76 178 193q0 111 -91 188.5t-218 77.5q-90 0 -151.5 -49t-61.5 -119z" />
<glyph unicode="9" d="M104 791q0 209 130.5 355t338.5 146q199 0 325 -143t126 -383q0 -278 -172 -522q-121 -170 -297 -310q-143 -111 -180 -110q-20 0 -21 20q0 12 47 50q211 170 306 313q90 137 153 375l-4 4q-145 -215 -364 -215q-168 0 -278 122.5t-110 297.5zM256 817q0 -158 81 -264.5 t210 -106.5t225 101.5t96 269.5q0 164 -63 283q-80 145 -232 145q-168 0 -251 -143q-66 -113 -66 -285z" />
<glyph unicode=":" horiz-adv-x="454" d="M127 76q0 41 29.5 70.5t70.5 29.5t71 -29.5t30 -70.5t-30 -71t-71 -30t-70.5 30t-29.5 71zM127 571q0 41 29.5 71t70.5 30t71 -30t30 -71t-30 -70.5t-71 -29.5t-70.5 29.5t-29.5 70.5z" />
<glyph unicode=";" horiz-adv-x="454" d="M80 -283q0 10 26 103q27 100 33 155q10 98 11 201q8 31 88 31q90 0 90 -41q-1 -12 -58 -139q-82 -180 -129 -287q-20 -47 -37 -47q-25 0 -24 24zM135 571q0 41 30 71t71 30t70.5 -30t29.5 -71t-30 -70.5t-70 -29.5q-41 0 -71 29.5t-30 70.5z" />
<glyph unicode="&#x3c;" d="M76 446v91l985 444v-90l-895 -399l895 -400v-90z" />
<glyph unicode="=" d="M78 319v84h983v-84h-983zM78 582v84h983v-84h-983z" />
<glyph unicode="&#x3e;" d="M78 2v90l895 400l-895 399v90l985 -444v-91z" />
<glyph unicode="?" horiz-adv-x="833" d="M98 1104q0 104 115 170q96 53 211 53t207 -76q102 -84 102 -209q0 -106 -90 -217l-168 -176q-90 -96 -90 -162q0 -41 30.5 -81.5t30.5 -47.5q0 -18 -20 -18q-27 0 -74 59q-57 70 -57 146q0 86 61 164q4 6 150 155q104 109 129 142q35 49 35 98q0 66 -52.5 111t-128.5 45 q-98 0 -196 -70q-109 -76 -109 -168q0 -29 14.5 -63.5t14.5 -40.5q0 -18 -16 -19q-31 0 -65 76t-34 129zM291 76q0 43 29.5 71.5t70.5 28.5t71 -28.5t30 -71.5t-30 -72t-71 -29t-70.5 29t-29.5 72z" />
<glyph unicode="@" horiz-adv-x="2048" d="M276 686q0 338 236 559q225 213 551 213q299 0 504 -180t205 -453q0 -184 -105 -338q-117 -174 -297 -174q-94 0 -151 66q-45 51 -41 86h-13q-16 -39 -78 -84q-78 -59 -159 -68q-209 0 -209 267q0 154 104 317q127 199 322 199q66 0 102 -35q18 -18 49 -76l21 86h147 l-139 -549q-6 -20 -6 -45q0 -90 84 -90q125 0 207 143q76 131 76 295q0 207 -164 379q-182 193 -459 193q-266 0 -438 -191q-184 -203 -185 -544q0 -244 181 -424q188 -186 462 -187q207 1 426 103l29 -58q-236 -121 -451 -121q-385 0 -616 246q-195 209 -195 465zM870 588 q0 -180 140 -180q74 0 147 116q82 133 103 342q-1 140 -91 140q-94 0 -188 -113q-111 -129 -111 -305z" />
<glyph unicode="A" horiz-adv-x="1402" d="M4 8q0 12 14 17q53 16 168 24q100 174 310 701q55 139 133 329q-82 176 -121 254q55 18 151 68q74 -240 267 -672l301 -680q106 -8 151 -24q14 -6 15 -17q0 -20 -21 -20h1q0 1 -77 6q-86 6 -170 6q-96 0 -189 -6q-84 -5 -84 -6h1q-20 0 -20 20q0 12 14 17q55 16 203 24 q-66 189 -138 357h-501q-57 -160 -111 -357q156 -8 231 -24q14 -4 15 -17q0 -20 -21 -20h1q0 1 -83 6q-92 6 -182 6q-80 0 -163 -6q-75 -5 -75 -6h1q-20 0 -21 20zM426 453h469l-240 569q-206 -503 -229 -569z" />
<glyph unicode="B" horiz-adv-x="1251" d="M72 8q0 12 14 17q51 16 172 24q8 137 8 598q0 459 -8 596q-121 8 -172 25q-14 4 -14 16q0 20 20 21q41 0 123 -6.5t123 -6.5q61 0 186 9.5t189 9.5q164 0 272 -72q131 -84 131 -244q0 -223 -299 -348v-4q334 -33 334 -287q0 -172 -152 -278q-137 -96 -327 -96 q-55 0 -167 9t-167 9q-41 0 -123 -6t-123 -6q-20 0 -20 20zM401 610q0 -424 9 -561q90 -20 211 -20q154 0 253 73q113 82 113 222q0 186 -188 251q-107 35 -330 35h-68zM401 657h68q211 0 322 41q182 66 182 248q0 154 -117 242q-104 76 -256 76q-125 0 -190 -21 q-9 -137 -9 -586z" />
<glyph unicode="C" horiz-adv-x="1327" d="M123 616q0 301 188.5 506t468.5 205q158 0 373 -65q8 53 29 131q6 18 20 18q16 0 17 -20l-9 -114q-10 -114 -10 -165q0 -55 5 -169t5 -116q0 -29 -16 -28q-14 0 -20 26q-31 117 -31 275q-207 166 -420 166q-205 0 -336 -129q-139 -139 -139 -377q0 -291 170 -502 q174 -219 428 -219q104 0 190 41q55 27 111 78q45 41 51 41q16 0 16 -15q0 -8 -8 -20q-39 -63 -147 -121q-141 -78 -303 -78q-279 0 -456 182.5t-177 468.5z" />
<glyph unicode="D" horiz-adv-x="1402" d="M61 8q0 12 15 17q51 16 172 24q8 137 8 598q0 459 -8 596q-121 8 -172 25q-14 4 -15 16q0 20 21 21q39 0 120 -6.5t122 -6.5q53 0 156.5 9.5t156.5 9.5q313 0 493 -181q174 -176 175 -471q0 -303 -201 -495q-191 -182 -467 -182q-51 0 -155.5 9t-157.5 9q-41 0 -122 -6 t-120 -6q-20 0 -21 20zM391 647q0 -455 8 -598q43 -6 84 -10q74 -10 125 -10q254 0 399.5 169t145.5 461q0 299 -174 463q-150 141 -371 142q-47 0 -123.5 -10.5t-85.5 -10.5q-8 -143 -8 -596z" />
<glyph unicode="E" horiz-adv-x="1251" d="M82 8q0 12 14 17q51 16 172 24q8 137 8 600q0 457 -8 594q-121 8 -172 25q-14 4 -14 16q0 20 20 21q39 0 120 -6.5t122 -6.5q399 0 709 35q20 86 41 86q16 0 16 -14q0 -6 -6 -72.5t-6 -99.5q0 -27 6 -107t6 -86q0 -29 -23 -28q-25 0 -43 186q-205 53 -483 53h-65 q-49 -2 -70 -2q-14 -137 -14 -563h39q340 0 538 49q12 147 49 148q16 0 17 -21q0 -4 -6.5 -85t-6.5 -114q0 -41 6.5 -123.5t6.5 -84.5q0 -23 -17 -23q-31 0 -49 174q-184 33 -538 33h-39q0 -446 14 -584q27 -2 80 -2q301 0 553 76q12 168 43 168q20 0 20 -21q0 -14 -6 -93 t-6 -114q0 -20 6 -73t6 -70q0 -18 -20 -18q-14 0 -37 63q-215 35 -721 35q-41 0 -122 -6t-120 -6q-20 0 -20 20z" />
<glyph unicode="F" horiz-adv-x="1175" d="M82 8q0 12 14 17q51 16 172 24q8 137 8 600q0 457 -8 594q-121 8 -172 25q-14 4 -14 16q0 20 20 21q39 0 120 -6.5t122 -6.5q399 0 709 35q20 86 41 86q16 0 16 -18q0 -6 -6 -70.5t-6 -97.5q0 -27 6 -107t6 -86q0 -29 -23 -28q-25 0 -43 186q-205 53 -483 53h-65 q-49 -2 -70 -2q-14 -330 -14 -563h39q340 0 538 49q12 147 49 148q16 0 17 -21q0 -4 -6.5 -85t-6.5 -114q0 -41 6.5 -123.5t6.5 -84.5q0 -23 -17 -23q-31 0 -49 174q-184 33 -538 33h-39q0 -119 20 -584q147 -8 213 -24q14 -4 14 -17q0 -20 -20 -20h1q0 1 -92 6 q-104 6 -204 6q-82 0 -166 -6q-77 -5 -77 -6h1q-20 0 -20 20z" />
<glyph unicode="G" horiz-adv-x="1478" d="M106 594q0 297 207 515t496 218q201 0 410 -108q29 176 55 176q16 0 16 -21v1q-1 0 -11 -111q-11 -119 -11 -195q0 -174 2 -229q2 -29 -17 -29q-31 0 -45 238q-104 96 -182 139q-129 69 -281 69h-4q-193 0 -335 -129q-164 -147 -164 -393q0 -301 182 -502 q173 -194 410 -194h2q96 0 176 31q30 10 139 67v447q-127 8 -186 24q-14 4 -15 17q0 20 21 20h-1l82 -6q89 -6 175 -6q53 0 109.5 6t49.5 6q20 0 21 -20q0 -12 -14 -17q-25 -14 -90 -24q0 -4 -6.5 -111.5t-6.5 -159.5q0 -23 2 -64.5t2 -52t10.5 -23.5t10.5 -23 q0 -23 -29 -28t-61 -9q-39 -6 -95 -35q-78 -39 -122 -55q-154 -57 -271 -58q-252 0 -432 164q-199 178 -199 465z" />
<glyph unicode="H" horiz-adv-x="1478" d="M68 8q0 12 14 17q51 16 172 24q8 137 8 598q0 459 -8 596q-121 8 -172 25q-14 4 -14 16q0 20 20 21h-1q0 -1 77 -6q84 -6 166 -7q82 0 166 7l76 6h-1q20 0 21 -21q0 -12 -14 -16q-51 -16 -172 -25q-9 -137 -9 -571h684q0 434 -8 571q-121 8 -172 25q-14 4 -14 16 q0 20 20 21h-1q0 -1 77 -6q84 -6 166 -7q82 0 166 7l77 6h-1q20 0 20 -21q0 -12 -14 -16q-51 -16 -172 -25q-8 -137 -8 -596q0 -461 8 -598q121 -8 172 -24q14 -4 14 -17q0 -20 -20 -20h1l-77 6q-84 6 -166 6t-166 -6q-77 -5 -77 -6h1q-20 0 -20 20q0 12 14 17q51 16 172 24 q8 137 8 576h-684q0 -438 9 -576q121 -8 172 -24q14 -4 14 -17q0 -20 -21 -20h1l-76 6q-84 6 -166 6t-166 -6q-77 -5 -77 -6h1q-20 0 -20 20z" />
<glyph unicode="I" horiz-adv-x="681" d="M78 8q0 12 14 17q51 16 172 24q8 137 8 598q0 459 -8 596q-121 8 -172 25q-14 4 -14 16q0 20 20 21h-1q0 -1 77 -7q84 -6 166 -6t166 6q77 6 77 7h-1q20 0 20 -21q0 -12 -14 -16q-51 -16 -172 -25q-8 -143 -8 -596q0 -455 8 -598q121 -8 172 -24q14 -4 14 -17 q0 -20 -20 -20h1l-77 6q-84 6 -166 6t-166 -6q-77 -5 -77 -6h1q-20 0 -20 20z" />
<glyph unicode="J" horiz-adv-x="645" d="M-43 -401q0 14 12 24q47 35 97 70q84 72 131 164q68 127 67 293q0 690 -26 1093q-102 6 -158 25q-14 4 -14 16q0 20 20 21h-1q0 -1 75 -7q82 -6 157 -6q80 0 163 6q76 6 76 7h-1q20 0 20 -21q0 -12 -14 -16q-51 -16 -172 -25q0 -123 5 -520t5 -559q0 -199 -123 -348 q-78 -94 -251 -211q-35 -23 -50 -23q-18 0 -18 17z" />
<glyph unicode="K" horiz-adv-x="1290" d="M68 8q0 12 14 17q51 16 172 24q8 137 8 598q0 459 -8 596q-121 8 -172 25q-14 4 -14 16q0 20 20 21h-1q0 -1 77 -7q84 -6 166 -6t166 6q76 6 76 7h-1q20 0 21 -21q0 -12 -14 -16q-51 -16 -172 -25q-8 -145 -9 -604q35 29 598 602q-84 10 -114 27q-14 4 -15 16q0 20 21 21 h-1q0 -1 64 -7q70 -6 137 -6q53 0 117 6.5t58 6.5q20 0 20 -21q0 -12 -14 -16q-41 -8 -113 -27q-186 -127 -694 -596q152 0 205 -12q80 -20 145 -92q43 -47 215 -305q125 -186 180 -187q20 0 43 14.5t31 14.5q16 0 16 -17q0 -27 -45 -63q-51 -41 -108 -41q-76 0 -158 92 q-47 53 -150.5 213t-168.5 236q-88 100 -238 100h-31q0 -416 9 -549q121 -8 172 -24q14 -4 14 -17q0 -20 -21 -20h1l-76 6q-84 6 -166 6t-166 -6q-77 -5 -77 -6h1q-20 0 -20 20z" />
<glyph unicode="L" horiz-adv-x="1175" d="M70 8q0 12 14 17q51 16 172 24q8 137 8 600q0 457 -8 594q-121 8 -172 25q-14 4 -14 16q0 20 20 21h-1q0 -1 77 -7q84 -6 166 -6t166 6q76 6 76 7h-1q20 0 21 -21q0 -12 -14 -16q-51 -16 -172 -25q-8 -137 -9 -594q1 -465 9 -602h86q301 0 553 76q14 180 43 180 q20 0 20 -27q0 -23 -6 -93t-6 -120q0 -41 6 -81.5t6 -49.5q0 -30 -19 -30h-1q-14 0 -37 63q-215 35 -721 35q-41 0 -121 -6t-121 -6q-20 0 -20 20z" />
<glyph unicode="M" horiz-adv-x="1630" d="M37 6q0 16 39 25q25 4 65.5 11t55.5 9q86 465 122 1039q-35 63 -61 114q-23 43 -80 53q-49 8 -49 25q0 20 27 21q12 0 48 -5.5t44 -5.5q25 0 137 11q33 -106 207 -459l235 -479q33 65 127 331l217 607q68 -10 91 -11q37 0 110.5 5.5t79.5 5.5q20 0 21 -17 q0 -18 -39 -24.5t-107 -20.5q0 -133 37 -566t66 -624q39 -6 126 -20q39 -8 39 -25q0 -18 -20 -18q4 0 -82 6t-152 6q-59 0 -161 -6l-103 -6q-20 0 -20 18t39 25q66 8 170 20q0 135 -31 516q-20 254 -41 508q-6 82 -6 111h-4q-68 -180 -240 -649l-94 -265q-18 -55 -25 -69 q-18 -47 -30 -47q-10 0 -33 47q-143 301 -395 803h-5q-59 -539 -59 -850q0 -18 2 -54v-51l170 -20q39 -6 39 -25q0 -18 -20 -18q4 0 -85.5 6t-158.5 6q-59 0 -129 -6t-64 -6q-20 0 -20 18z" />
<glyph unicode="N" horiz-adv-x="1441" d="M61 8q0 10 15 17q45 16 151 24q37 203 37 795q0 55 -3 148t-3 124q0 23 -41 68q-49 53 -121 78q-18 6 -18 16q0 25 26 25q14 0 56.5 -5.5t54.5 -5.5q18 0 104 11q18 -25 56 -78q465 -618 760 -967q12 80 12 242q0 553 -35 743q-121 8 -172 25q-14 4 -14 16q0 20 20 21h-1 q0 -1 70 -7q79 -6 159 -6q68 0 140 6.5t66 6.5q20 0 21 -21q0 -12 -15 -16q-51 -16 -153 -25q-41 -176 -41 -743q0 -109 3 -295.5t3 -204.5q0 -35 -18 -35q-10 0 -35 35q-133 182 -834 1073l-4 -4q2 -55 2 -225q0 -602 41 -795q141 -8 205 -24q14 -4 14 -17q0 -20 -20 -20h1 l-82 6q-89 6 -177 6q-73 0 -145 -6q-64 -5 -65 -6h1q-20 0 -21 20z" />
<glyph unicode="O" horiz-adv-x="1593" d="M106 623q0 299 191 497q199 207 514 207q297 0 485.5 -191.5t188.5 -465.5q0 -299 -191 -498q-199 -207 -514 -207q-297 0 -487 195q-186 188 -187 463zM197 750q0 -285 229 -500q219 -207 479 -207q190 0 340 145.5t150 354.5q0 285 -230 501q-219 205 -479 205 q-188 0 -336 -141q-154 -150 -153 -358z" />
<glyph unicode="P" horiz-adv-x="1175" d="M70 8q0 12 14 17q51 16 172 24q8 137 8 598q0 459 -8 596q-121 8 -172 25q-14 4 -14 16q0 20 20 21q39 0 120 -6.5t122 -6.5q55 0 165.5 10.5t166.5 10.5q164 0 280 -60q168 -86 168 -274q0 -199 -182 -313q-152 -94 -348 -95q2 0 -183 13q1 -408 9 -535q150 -6 227 -24 q14 -4 14 -17q0 -20 -20 -20h1l-96 6q-102 6 -202 6q-82 0 -166 -6q-77 -5 -77 -6h1q-20 0 -20 20zM399 631q111 -13 168 -13q168 0 275 68q127 82 127 244q0 152 -115 248q-104 86 -250 86q-94 0 -196 -21q-8 -172 -9 -612z" />
<glyph unicode="Q" horiz-adv-x="1630" d="M137 631q0 293 191 489q199 207 514 207q295 0 487 -194q186 -186 187 -455q0 -377 -250 -563q-156 -117 -529 -209v-4q137 -37 455 -121q152 -39 207 -39q49 0 99 32.5t58 32.5q15 0 15 -12q0 -29 -101 -86q-109 -63 -196 -63q-96 0 -301 59q-158 47 -314 94 q-127 33 -159 33q-74 0 -122 -8t-44 -8q-25 0 -25 18q0 66 353 88q25 4 70.5 19.5t68.5 19.5v4q-291 0 -482 197q-182 190 -182 469zM227 750q0 -291 230 -508q217 -207 479 -207q190 0 339.5 146.5t149.5 361.5q0 285 -229 501q-219 205 -479 205q-188 0 -336 -141 q-154 -150 -154 -358z" />
<glyph unicode="R" horiz-adv-x="1214" d="M53 8q0 12 15 17q51 16 172 24q8 137 8 598q0 459 -8 596q-121 8 -172 25q-14 4 -15 16q0 20 21 21q39 0 119.5 -6.5t121.5 -6.5q55 0 167 9.5t167 9.5q176 0 291 -66q150 -84 150 -258q0 -188 -172 -299q-143 -90 -314 -90q43 -55 203 -254q100 -125 201 -248 q53 -59 112 -59q27 0 53.5 13t30.5 13q14 0 15 -12q0 -27 -58 -59q-63 -35 -131 -35q-98 0 -178 98q-135 184 -385 508q-41 51 -41 62q0 16 23 16h122q375 0 375 272q0 154 -113.5 252.5t-273.5 98.5q-27 0 -86 -11q-66 -10 -82 -10q-8 -143 -8 -596q0 -455 8 -598 q133 -8 193 -24q14 -4 14 -17q0 -20 -20 -20h1q0 1 -82 6q-91 6 -182 6q-81 0 -165 -6q-76 -5 -77 -6h1q-20 0 -21 20z" />
<glyph unicode="S" horiz-adv-x="1099" d="M102 -74q0 6 5.5 27.5t11.5 73.5q8 74 8 186q0 49 -7 141t-7 88q0 20 16 21q33 0 51 -250q195 -176 410 -176q143 0 244.5 83t101.5 212q0 150 -203 196q-174 29 -350 56q-268 68 -268 321q0 178 141 303q133 119 307 119q125 0 332 -74q12 39 26.5 80t28.5 41 q12 0 13 -14v3q-2 0 -17 -112q-14 -114 -14 -200v-133q0 -23 -14 -23q-20 0 -29 78l-8 129q-189 153 -363 153h-2q-135 0 -235 -77q-109 -86 -109 -222q0 -147 205 -200q188 -33 375 -66q129 -33 185 -101.5t56 -187.5q0 -195 -136 -315.5t-345 -120.5q-123 0 -342 76 q-39 -129 -55 -129q-12 0 -13 14z" />
<glyph unicode="T" horiz-adv-x="1251" d="M51 1030q0 14 6 91t6 108q0 25 -6 88t-6 76q0 18 21 18q14 0 37 -84q156 -35 516 -35t516 35q23 84 37 84q20 0 20 -18q0 -12 -6 -76t-6 -88q0 -31 6 -108t6 -91q0 -20 -20 -20q-29 0 -43 184q-180 61 -349 61q-57 0 -86 -2q-8 -141 -8 -610q0 -457 8 -594 q121 -8 172 -24q15 -5 15 -17q0 -20 -21 -20h1l-77 6q-84 6 -165 6q-82 0 -166 -6q-77 -5 -77 -6h1q-20 0 -21 20q0 12 15 17q51 16 172 24q8 137 8 594q0 469 -8 610q-29 2 -86 2q-168 0 -348 -61q-14 -184 -43 -184q-20 0 -21 20z" />
<glyph unicode="U" horiz-adv-x="1441" d="M39 1284q0 20 20 21h-1q0 -1 78 -6q87 -6 175 -7q87 0 183 7q88 6 89 6h-1q20 0 20 -21q0 -12 -14 -16q-66 -16 -211 -25q-8 -137 -8 -686q0 -328 51 -405q92 -139 297 -140q180 0 303 107q88 78 117 264q16 119 16 399q0 115 -31 461q-131 8 -190 25q-14 4 -14 16 q0 20 20 21q-6 0 78 -6.5t160 -6.5q70 0 142 7q64 6 65 6h-1q20 0 21 -21q0 -12 -14 -16q-55 -18 -160 -25q-31 -346 -31 -461q0 -272 -18 -401q-33 -219 -129 -297q-150 -119 -334 -119q-221 0 -365 127q-82 74 -104 193q-14 84 -15 360q0 461 -8 598q-121 8 -172 25 q-14 4 -14 16z" />
<glyph unicode="V" horiz-adv-x="1327" d="M-18 1284q0 20 20 21q-6 0 62.5 -6.5t132.5 -6.5q71 0 143 7l64 6h-1q20 0 21 -21q0 -12 -14 -16q-36 -15 -138 -25l437 -1083q102 215 223 540q102 279 164 543q-106 8 -152 25q-14 6 -14 16q0 20 20 21q-6 0 61.5 -6.5t127.5 -6.5q57 0 123.5 7t60.5 6q20 0 20 -21 q0 -12 -14 -16q-41 -18 -115 -25q-43 -104 -163 -389q-168 -395 -349 -823q-8 -20 -18 -43t-25 -23q-18 0 -43 62l-497 1216q-84 8 -123 25q-14 4 -14 16z" />
<glyph unicode="W" horiz-adv-x="1744" d="M-23 1284q0 20 21 21h-1l143 -6q152 -6 282 -7q132 0 282 7q135 6 136 6h-2q20 0 20 -21q0 -12 -14 -16q-35 -14 -142 -25l218 -541q119 307 172 541q-59 6 -154 25q-14 4 -14 16q0 20 20 21h-1q-1 -1 135 -6q148 -6 290 -7q115 0 252 7l126 6h-1q20 0 20 -21 q0 -12 -14 -16q-37 -16 -102 -25q-97 -209 -324 -754l-211 -505q-14 -33 -22 -33t-27 33l-191 481q-80 -201 -190 -481q-12 -33 -25 -33q-8 0 -28 33q-205 498 -525 1259q-74 6 -114 25q-14 4 -15 16zM274 1243l431 -1085q4 8 147 362l-299 723h-279zM946 637l193 -494 l147 379q160 408 246 721h-336q-121 -276 -250 -606z" />
<glyph unicode="X" horiz-adv-x="1366" d="M16 8q0 12 15 17q47 16 151 24q78 84 226 289q131 180 194 283q-283 436 -436 622q-80 8 -111 25q-14 4 -14 16q0 20 20 21h-1q0 -1 70 -7q77 -6 151 -6q73 0 155 6q74 6 75 7h-1q20 0 20 -21q0 -12 -14 -16q-53 -17 -170 -25l342 -504q276 406 320 504q-104 8 -150 25 q-14 6 -14 16q0 20 20 21h-1q0 -1 68 -7q75 -6 142 -6q61 0 130 6.5t61 6.5q20 0 20 -21q0 -10 -14 -16q-41 -16 -131 -25q-219 -233 -426 -543q152 -219 237 -338q166 -231 236 -313q96 -8 135 -24q14 -6 14 -17q0 -20 -20 -20h1q0 1 -76 6q-85 6 -169 6q-80 0 -169 -6 l-82 -6h1q-20 0 -20 20q0 12 14 17q55 16 180 24q-37 63 -366 533q-106 -160 -158 -246q-104 -168 -156 -287q129 -8 189 -24q14 -4 14 -17q0 -20 -20 -20h1q0 1 -81 6q-90 6 -170 6q-68 0 -144 -6q-68 -5 -68 -6h1q-20 0 -21 20z" />
<glyph unicode="Y" horiz-adv-x="1214" d="M-6 1284q0 20 20 21h-1q0 -1 70 -7q77 -6 150 -6q68 0 143 6q67 6 67 7h-1q20 0 21 -21q0 -12 -14 -16q-35 -16 -142 -25q92 -162 342 -553q76 115 174 283q106 186 138 270q-117 8 -170 25q-14 4 -15 16q0 20 21 21q-6 0 66.5 -6.5t137.5 -6.5q61 0 130 6.5t61 6.5 q20 0 20 -21q0 -10 -14 -16q-41 -16 -131 -25q-39 -53 -145 -207q-170 -254 -248 -385q0 -465 8 -602q133 -8 192 -24q15 -5 15 -17q0 -20 -21 -20h1q0 1 -82 6q-91 6 -181 6q-88 0 -179 -6l-84 -6h1q-20 0 -20 20q0 12 14 17q59 16 192 24q8 133 9 559q-168 268 -402 635 q-47 4 -129 25q-14 4 -14 16z" />
<glyph unicode="Z" horiz-adv-x="1175" d="M102 1036q0 4 6.5 89t6.5 124q0 8 -6.5 54.5t-6.5 70.5q0 35 23 35q14 0 39 -82q227 -35 483 -35q106 0 254 6l141 7q16 0 17 -11l-121 -186q-2 -4 -233 -371q-302 -479 -406 -690h45q428 0 682 70q0 80 23 155q4 16 18 17q23 0 23 -29q0 -12 -6.5 -71.5t-6.5 -73.5 q0 -43 6.5 -118t6.5 -85q0 -16 -21 -16q-14 0 -39 69q-195 35 -534 35q-61 0 -186.5 -6t-186.5 -6q-18 0 -19 14q0 10 39 72q66 104 90 145q236 369 652 1030q-20 0 -76 -2q-61 -2 -113 -2q-330 -2 -532 -57q-16 -188 -45 -189q-16 0 -17 37z" />
<glyph unicode="[" horiz-adv-x="569" d="M197 -287v1577q0 37 32 37h252q51 0 51 -22q0 -23 -51 -23h-147v-1561h147q51 0 51 -22q0 -23 -51 -23h-252q-33 0 -32 37z" />
<glyph unicode="\" horiz-adv-x="530" d="M20 1327h74l414 -1362h-74z" />
<glyph unicode="]" horiz-adv-x="569" d="M37 -301q0 23 51 22h148v1561h-148q-51 0 -51 23t51 22h252q33 0 33 -37v-1577q0 -37 -33 -37h-252q-51 0 -51 23z" />
<glyph unicode="^" d="M78 504l446 788h90l447 -788h-90l-402 717l-401 -717h-90z" />
<glyph unicode="_" horiz-adv-x="1024" d="M0 -154h1024v-102h-1024v102z" />
<glyph unicode="`" horiz-adv-x="614" d="M92 1010q0 12 14 12h125q10 0 19 -12q57 -66 168 -199q12 -14 12 -25q0 -14 -14 -14q-8 0 -31 16q-168 127 -281 205q-12 8 -12 17z" />
<glyph unicode="a" horiz-adv-x="833" d="M88 174q0 106 82 168q72 53 170 53q74 0 186 -45q0 137 -16 178q-25 55 -115 56q-72 0 -151.5 -34t-87.5 -34q-20 0 -21 19q0 31 113.5 84t193.5 53q211 0 211 -197v-172q-2 -106 -2 -119q0 -112 30 -112h1q29 0 71 31.5t46 31.5q12 0 12 -14q0 -31 -72 -84 q-82 -61 -164 -62q-49 0 -49 35v88q-154 -123 -256 -123q-80 0 -131 58.5t-51 140.5zM213 195q0 -61 34 -100.5t93 -39.5q75 1 186 97v157q-100 39 -155 39q-158 0 -158 -153z" />
<glyph unicode="b" horiz-adv-x="909" d="M12 1442q0 25 97.5 80t158.5 55q37 0 37 -64q0 -51 -4 -438t-4 -530q172 127 281 127q117 0 182 -99q55 -86 55 -215q0 -170 -82 -276.5t-229 -106.5q-125 0 -213 80v-67q-111 12 -107 12q-49 0 -97 -6t-46 -6q-23 0 -23 14q0 18 21 21q53 14 125 24q8 231 8 692 q0 410 -10 629q-4 94 -41 94q-23 0 -54.5 -19.5t-39.5 -19.5q-14 0 -15 19zM291 297q0 -127 35 -186q51 -88 166 -88q88 0 137 87t49 224q0 113 -47 186.5t-131 73.5q-80 0 -203 -102q-6 -190 -6 -195z" />
<glyph unicode="c" horiz-adv-x="796" d="M82 303q0 152 106.5 260.5t260.5 108.5q88 0 184 -41q25 80 39 80t14 -21q0 -6 -6 -68.5t-6 -103.5q0 -37 3 -86t3 -53q0 -18 -14 -19q-14 0 -27 60q-6 43 -14 88q-29 43 -86 76q-70 41 -140 41q-86 0 -141 -56q-63 -63 -63 -178q0 -147 83.5 -237.5t192.5 -90.5 q82 0 149 61l68 62q17 0 17 -16q0 -37 -70 -104q-96 -90 -232 -91q-125 0 -215 80q-106 90 -106 248z" />
<glyph unicode="d" horiz-adv-x="948" d="M92 305q0 154 78 254q84 113 236 113q125 0 210 -90q0 82 -4 386t-4 399t-41 95q-23 0 -54.5 -19.5t-39.5 -19.5q-14 0 -14 19q0 25 97 80t159 55q37 0 37 -64q0 -41 -5.5 -342t-5.5 -407v-612q0 -53 4 -66q4 -18 23 -18q33 0 83 39.5t54 39.5q12 0 13 -16q0 -33 -66 -90 q-76 -66 -147 -66q-88 0 -89 91v49h-4q-96 -139 -247 -140q-117 0 -195 89.5t-78 240.5zM229 336q0 -266 197 -266h2q125 0 188 108v344q-82 109 -194 109q-92 0 -142.5 -81t-50.5 -214z" />
<glyph unicode="e" horiz-adv-x="796" d="M78 307q0 143 86 248q94 117 256 117q150 0 229 -90q70 -83 70 -220h-518q0 -106 63 -196q74 -111 197 -111q70 0 123 37q33 23 65 66q27 37 35 37q14 0 14 -15q0 -49 -71 -117q-92 -88 -224 -88q-147 0 -236 92.5t-89 239.5zM201 401l377 11q0 225 -175 225 q-182 0 -202 -236z" />
<glyph unicode="f" horiz-adv-x="645" d="M55 588v71q86 -12 168 -12q0 20 -8 183t-8 249q0 176 80 312q31 53 82 104q80 82 147 82q41 0 68.5 -27.5t27.5 -64.5q0 -86 -88 -86q-51 0 -72.5 38t-27.5 38q-80 0 -80 -283q0 -156 2 -347.5t2 -197.5q138 1 244 15v-76q-245 13 -245 14h1q0 -383 6 -553 q135 -12 201 -24q20 -4 20 -21q0 -14 -22 -14q2 0 -90 6t-178 6q-59 0 -122 -6t-61 -6q-23 0 -22 14q0 18 20 21q35 12 117 24q6 170 6 553q-84 0 -168 -12z" />
<glyph unicode="g" horiz-adv-x="833" d="M94 365q0 127 115 219q109 88 244 88q93 0 163 -47q35 45 35 59q0 33 -33.5 65.5t-33.5 55.5q0 59 59 59q88 0 88 -106q0 -76 -84 -152q86 -86 86 -172q0 -123 -109.5 -215t-240.5 -92q-86 0 -147 31q-47 -53 -48 -86q0 -33 162 -41q248 -12 260 -15q117 -16 117 -114 q0 -129 -112.5 -220.5t-268.5 -91.5q-84 0 -153 37q-80 41 -80 105q0 51 94 186q-106 25 -107 92q0 63 103 166q-109 86 -109 189zM168 -240q0 -55 74 -90q59 -26 126 -26h5q98 0 192 56t94 130q0 57 -90 72q-66 10 -321 10q-80 -100 -80 -152zM168 438q0 -82 106.5 -153.5 t208.5 -71.5q76 0 128.5 43t52.5 102q0 90 -101.5 159t-214.5 69q-82 0 -131 -42.5t-49 -105.5z" />
<glyph unicode="h" horiz-adv-x="985" d="M18 1442q0 25 97.5 80t158.5 55q37 0 37 -64q0 -57 -5 -452t-5 -504q205 115 326 115q190 0 190 -185q0 -31 -2 -90t-2 -86q0 -184 6 -264q84 -12 115 -24q20 -9 20 -21q0 -14 -22 -14q2 0 -60.5 6t-121.5 6t-122 -6t-61 -6q-23 0 -22 14q0 12 20 21q31 10 117 24 q6 80 6 264q0 150 -18 201q-29 82 -123 82q-111 0 -246 -80q0 -326 4 -467q43 -6 117 -24q20 -8 20 -21q0 -14 -22 -14q2 0 -60.5 6t-121.5 6t-122 -6t-61 -6q-23 0 -22 14q0 12 20 21q31 10 117 24q6 213 6 721q0 102 -4 317t-4 283q0 94 -41 94q-23 0 -54.5 -19.5 t-39.5 -19.5q-14 0 -15 19z" />
<glyph unicode="i" horiz-adv-x="530" d="M51 602q0 14 33 23l94 20q145 34 145 37h-1q16 0 16 -27v2l-2 -65q-4 -156 -4 -281q0 -184 6 -264q78 -12 115 -24q20 -2 20 -21q1 -14 -22 -14q2 0 -60.5 6t-122.5 6q-59 0 -121.5 -6t-60.5 -6q-23 0 -23 14q0 18 21 21q35 12 117 24q6 80 6 264q0 170 -4 281 q-16 0 -64.5 -2t-70.5 -2q-16 0 -17 14zM160 1081q0 39 27.5 67t66.5 28t66.5 -28t27.5 -67t-27.5 -66.5t-66.5 -27.5t-66.5 27.5t-27.5 66.5z" />
<glyph unicode="j" horiz-adv-x="454" d="M25 -375q0 8 12 21q125 78 141 313q8 121 8 305q0 197 -4 328q-16 0 -64 -2t-71 -2q-16 0 -16 14t32 23q47 10 95 20q144 34 144 37h-1q16 0 16 -27v-28q-2 -25 -2 -35q-4 -176 -4 -328q0 -39 2 -119.5t2 -121.5q0 -121 -32 -193q-2 -4 -41 -61q-33 -49 -103.5 -104.5 t-97.5 -57.5q-16 0 -16 18zM139 1081q0 39 28 67t66 28q39 0 67 -28t28 -67t-28 -66.5t-67 -27.5t-66.5 27.5t-27.5 66.5z" />
<glyph unicode="k" horiz-adv-x="948" d="M20 1442q0 25 97.5 80t158.5 55q37 0 37 -64q0 -45 -5 -352t-5 -393q0 -508 4 -721q82 -12 117 -24q20 -2 20 -21q0 -14 -22 -14q2 0 -60.5 6t-121.5 6t-122 -6t-61 -6q-23 0 -22 14q0 18 20 21q35 12 117 24q6 319 6 721q0 80 -4 304t-4 296q0 94 -41 94 q-23 0 -54.5 -19.5t-39.5 -19.5q-14 0 -15 19zM326 305l151 45l43 -53q100 39 144 68q74 53 73 129q0 104 -125 104q-72 0 -152.5 -35t-86.5 -35q-18 0 -19 17q0 31 130 79t208 48q72 0 123 -39t51 -96q0 -143 -325 -267q70 -70 139 -141q88 -86 127 -86q29 0 49.5 25.5 t32.5 25.5q14 0 14 -14q0 -29 -39 -64q-45 -41 -102 -41q-86 0 -236 131q-63 55 -200 199z" />
<glyph unicode="l" horiz-adv-x="530" d="M53 1442q0 25 97.5 80t158.5 55q37 0 37 -64q0 -45 -5 -352t-5 -393q0 -508 4 -721q82 -12 117 -24q20 -2 20 -21q0 -14 -22 -14q2 0 -60.5 6t-122.5 6q-59 0 -121.5 -6t-60.5 -6q-23 0 -22 14q0 18 20 21q35 12 117 24q6 319 6 721q0 80 -4 304t-4 296q0 94 -41 94 q-23 0 -54.5 -19.5t-39.5 -19.5q-14 0 -15 19z" />
<glyph unicode="m" horiz-adv-x="1478" d="M39 602q0 18 74 37q43 8 88 16q102 27 108 27q20 0 21 -27q0 -6 -2 -47t-2 -55q217 119 305 119q158 0 184 -121q213 121 307 121q190 0 191 -185q0 -31 -2 -90t-2 -86q0 -184 6 -264q78 -12 115 -24q20 -2 20 -21q0 -14 -23 -14q2 0 -60 6t-122 6q-59 0 -121.5 -6 t-60.5 -6q-23 0 -23 14q0 18 21 21q35 12 117 24q6 80 6 264q0 150 -19 201q-29 82 -123 82q-61 0 -127 -29q-10 -6 -96 -55v-100q-2 -68 -2 -99q0 -184 6 -264q78 -12 115 -24q20 -2 20 -21q0 -14 -22 -14q2 0 -60.5 6t-121.5 6t-122 -6t-61 -6q-23 0 -22 14q0 18 20 21 q35 12 117 24q6 80 6 264q0 150 -18 201q-29 82 -123 82q-84 0 -225 -84v-199q0 -211 6 -264q78 -12 114 -24q20 -2 21 -21q0 -14 -23 -14q2 0 -60 6t-122 6q-59 0 -121.5 -6t-60.5 -6q-23 0 -23 14q0 18 21 21q35 12 117 24q6 80 6 264q0 199 -6 281q-6 0 -64.5 -2 t-73.5 -2q-18 0 -18 14z" />
<glyph unicode="n" horiz-adv-x="1024" d="M53 602q0 20 74 37q43 8 88 16q111 27 109 27q20 0 20 -27q0 -6 -2 -47t-2 -55q217 119 315 119q190 0 191 -185q0 -31 -2 -90t-2 -86q0 -184 6 -264q78 -12 115 -24q20 -3 20 -21q0 -14 -22 -14q2 0 -60.5 6t-122.5 6q-59 0 -121.5 -6t-60.5 -6q-23 0 -23 14q0 18 21 21 q35 12 117 24q6 80 6 264q0 150 -19 201q-29 82 -123 82q-92 0 -233 -84v-98q-2 -66 -2 -101q0 -211 6 -264q78 -12 115 -24q20 -2 20 -21q0 -14 -22 -14q2 0 -60.5 6t-122.5 6q-59 0 -121.5 -6t-60.5 -6q-23 0 -22 14q0 18 20 21q35 12 117 24q6 80 6 264q0 199 -6 281 q-6 0 -64.5 -2t-72.5 -2q-18 0 -19 14z" />
<glyph unicode="o" horiz-adv-x="948" d="M92 285q0 174 146 286q129 101 297 101q141 0 227 -74q94 -80 94 -227q0 -182 -124 -289t-308 -107q-145 0 -236 78q-96 82 -96 232zM221 332q0 -143 62 -226q66 -90 190 -90q129 0 195 86q59 78 59 209q0 319 -240 320q-119 0 -192.5 -78t-73.5 -221z" />
<glyph unicode="p" horiz-adv-x="909" d="M14 602q0 20 74 37q43 8 88 16q111 27 109 27q20 0 20 -27q0 -84 -2 -116q150 133 277 133q125 0 190 -103q53 -86 53 -213q0 -156 -97 -268.5t-220 -112.5q-72 0 -127 29q-18 8 -78 51q0 -272 6 -389q150 -14 207 -24q21 -5 21 -21q0 -14 -23 -14q4 0 -90 6t-184 6 q-59 0 -122 -6t-61 -6q-23 0 -22 14q0 18 20 21q35 12 117 24q6 135 6 449q0 397 -6 477q-6 0 -64.5 -2t-72.5 -2q-18 0 -19 14zM301 131q106 -111 205 -111q176 0 176 293q0 281 -176 281q-96 0 -189 -94l-16 -17v-352z" />
<glyph unicode="q" horiz-adv-x="872" d="M82 303q0 168 104 275q94 94 217 94q84 0 152 -52.5t63 -52.5q10 0 37 33q33 41 60 62q46 32 103 32h3q39 0 39 -24q0 -14 -29 -21q-39 -6 -55 -22q-47 -46 -47 -193v-323q0 -309 6 -445q82 -12 117 -24q20 -2 20 -21q0 -14 -22 -14q2 0 -60.5 6t-121.5 6 q-90 0 -184.5 -6t-90.5 -6q-23 0 -22 14q0 16 20 21q57 10 207 24q6 90 6 412q-119 -102 -229 -103q-119 0 -201 80q-92 90 -92 248zM215 356q0 -127 47 -209q57 -102 172 -102q92 0 170 98v361q-72 123 -182 123q-86 0 -146.5 -77t-60.5 -194z" />
<glyph unicode="r" horiz-adv-x="681" d="M29 602q0 18 73 37q43 8 88 16q10 2 50 17q25 10 45 10t20 -27q8 -35 8 -221h4q23 84 78 156q70 92 150 92q39 0 65.5 -24.5t26.5 -63.5q0 -35 -23.5 -59.5t-60.5 -24.5q-35 0 -54.5 24.5t-31.5 24.5q-76 0 -119 -131q-33 -102 -33 -229q0 -104 7 -152q145 -14 204 -24 q20 -4 21 -21q0 -14 -23 -14q4 0 -89 6t-183 6q-59 0 -121.5 -6t-60.5 -6q-23 0 -23 14q0 18 21 21q35 12 116 24q6 74 6 250q0 213 -6 295q-6 0 -64.5 -2t-72.5 -2q-18 0 -18 14z" />
<glyph unicode="s" horiz-adv-x="681" d="M98 -55l6 54q5 54 5 103q0 33 -3.5 77t-3.5 54q0 20 15 21q18 0 41 -133q127 -78 227 -78q68 0 116 35t48 86q0 53 -53 74q-29 10 -124.5 19t-144.5 28q-129 47 -129 178q0 94 71 151.5t179 57.5q88 0 180 -43q27 71 41 71q12 0 13 -14l-8 -48q-7 -48 -7 -87q0 -47 3 -84 l3 -37q0 -16 -14 -16q-18 0 -39 118q-113 86 -215 86q-59 0 -107 -32.5t-48 -81.5q0 -66 88 -84q94 -10 190 -23q174 -35 174 -182q0 -113 -81 -176.5t-208 -63.5q-72 0 -166 33q-18 -78 -36 -78q-12 0 -13 15z" />
<glyph unicode="t" horiz-adv-x="606" d="M27 588v71q86 -12 157 -12v391h138q-12 -199 -13 -391q158 1 264 15v-76q-14 0 -124 10q-82 6 -140 6q0 -23 -3 -103.5t-3 -119.5q0 -125 4 -232q4 -81 103 -81h2q53 0 100 38.5t53 38.5q18 0 19 -18q0 -37 -72 -90q-80 -59 -162 -60q-100 0 -139 62q-33 51 -33 164 q0 66 3 224.5t3 174.5q-74 0 -157 -12z" />
<glyph unicode="u" horiz-adv-x="948" d="M20 592q0 18 64 35q41 10 80 18q90 27 104 27q20 0 21 -27q0 -6 -2 -47t-2 -55v-154q-2 -150 -2 -209q0 -131 143 -131q66 0 127 27q14 6 94 51v176q0 197 -6 279q-6 0 -55 -2t-64 -2q-18 0 -18 14q0 20 63 37q41 8 80 16l23 6q72 20 88 21q20 0 20 -27q0 -8 -2 -48 t-2 -54q-2 -51 -2 -240q0 -178 8 -256q82 -12 117 -24q20 -2 21 -21q0 -14 -23 -14l-55 6q-56 6 -95 6q-26 0 -98 -12v104q-190 -117 -323 -117q-168 0 -168 183l2 243q0 145 -2 181q-6 0 -54.5 -2t-62.5 -2q-18 0 -19 14z" />
<glyph unicode="v" horiz-adv-x="872" d="M16 645q0 14 23 14l61 -6q60 -6 113 -6q45 0 93 6t46 6q23 0 23 -14q0 -10 -21.5 -21.5t-89.5 -23.5q66 -152 211 -487q113 242 184 487q-29 6 -79 25q-20 10 -21 20q0 14 23 14l46 -6q46 -6 87 -6t86 6l45 6q22 0 22 -13t-20 -21q-31 -12 -90 -25q-33 -74 -297 -602 q-16 -33 -33 -33q-14 0 -31 33q-47 94 -231 508q-14 31 -43 94q-33 6 -86 25q-20 10 -21 20z" />
<glyph unicode="w" d="M10 645q0 14 23 14q-2 0 107.5 -6t209.5 -6q111 0 228.5 6t113.5 6q23 0 23 -14q0 -12 -21.5 -21.5t-87.5 -21.5q123 -371 172 -477q129 305 164 475q-33 6 -88 25q-20 10 -20 20q0 14 22 14q-2 0 46 -6t95 -6q35 0 77 6l42 6q23 0 23 -14q0 -12 -21 -20q-41 -18 -76 -25 q-8 -18 -34 -80q-100 -217 -250 -524q-16 -31 -31 -31q-18 0 -31 31l-131 342q-49 -106 -157 -334q-18 -39 -37 -39q-20 0 -37 45q-59 156 -195 518q-14 33 -30 74q-27 6 -78 23q-20 10 -21 20zM250 598q74 -203 170 -473q43 92 121 287q-39 90 -72 186h-219z" />
<glyph unicode="x" horiz-adv-x="909" d="M31 2q0 18 21.5 23.5t103.5 21.5q135 135 250 268q-37 49 -185 217q-14 16 -65 68q-35 8 -97 25q-20 8 -20 20q0 14 22 14q-4 0 54.5 -6t120.5 -6q57 0 118.5 6t59.5 6q23 0 22 -14q0 -18 -20 -20q-29 -8 -94 -25q10 -12 30 -41q49 -70 125 -160q94 100 139 201 q-29 6 -73 25q-20 2 -21 20q0 14 23 14l46 -6q46 -6 87 -6q61 0 119.5 6t54.5 6q23 0 22 -14q0 -18 -20 -20q-23 -8 -104 -25q-119 -80 -250 -231q18 -25 125 -154l20 -27l117 -141q37 -6 96 -24q21 -3 21 -21q0 -14 -23 -14q4 0 -54.5 6t-119.5 6q-57 0 -118.5 -6t-59.5 -6 q-23 0 -23 14q0 18 21 21q31 10 94 24q-68 111 -166 240q-94 -121 -154 -240q45 -8 105 -24q20 -2 20 -21q0 -14 -22 -14l-59 6q-58 6 -111 6q-55 0 -107.5 -6t-48.5 -6q-23 0 -22 14z" />
<glyph unicode="y" horiz-adv-x="833" d="M8 645q0 14 23 14q-2 0 54 -6t110 -6q49 0 97 6t46 6q23 0 22 -14q0 -18 -20 -20q-37 -14 -80 -25q47 -160 191 -485q125 309 170 485q-14 2 -74 25q-20 8 -21 20q0 14 23 14l46 -6t87 -6q39 0 77 6t36 6q22 0 22 -13q0 -15 -20 -21q-43 -20 -74 -25q-64 -152 -252 -549 q-131 -256 -192 -344q-70 -100 -125 -100q-92 0 -93 90q0 88 86 88q47 0 80 -45q82 90 154 229q-90 225 -231 555q-10 25 -33 76q-33 8 -88 25q-20 2 -21 20z" />
<glyph unicode="z" horiz-adv-x="833" d="M96 8q0 10 64 88q152 184 395 514q-221 0 -387 -61q-18 -98 -35 -98q-16 0 -16 20q0 16 6 63.5t6 73.5q0 12 -4 48t-4 61q0 22 11 22h1q16 0 35 -80q82 -14 252 -14q47 0 141 7t141 7q25 0 25 -16q0 -10 -70 -90q-162 -186 -387 -520q150 0 213 8q125 16 195 70 q16 94 37 94q14 0 14 -17q0 -14 -6 -67t-6 -78q0 -39 4 -73t4 -40q0 -18 -14 -18q-16 0 -35 76q-233 12 -326 12q-39 0 -114.5 -6t-114.5 -6q-25 0 -25 20z" />
<glyph unicode="{" d="M328 477v49q182 72 182 260q0 35 -27 193q-20 121 -20 197q0 141 112 245q106 96 238 103v-51q-86 -25 -135 -109q-43 -74 -43 -170q0 -76 12 -174t12 -162q0 -147 -98 -248q-51 -53 -160 -108q258 -139 258 -357q0 -25 -12 -162t-12 -173q0 -96 43 -170q49 -84 135 -109 v-51q-131 6 -238 102q-113 104 -112 246q0 76 20 197q27 158 27 192q0 90 -55 164q-51 66 -127 96z" />
<glyph unicode="|" horiz-adv-x="493" d="M201 -512v2048h90v-2048h-90z" />
<glyph unicode="}" d="M328 -469q86 25 135 109q43 74 43 170q0 37 -12.5 174t-12.5 161q0 147 99 248q51 53 159 109q-258 139 -258 356q0 63 12.5 161.5t12.5 174.5q0 96 -43 170q-49 84 -135 109v51q131 -6 237 -103q113 -104 113 -245q0 -76 -21 -197q-27 -158 -26 -193q0 -90 55 -163 q51 -66 127 -97v-49q-182 -72 -182 -260q0 -35 26 -192q20 -121 21 -197q0 -141 -113 -246q-106 -96 -237 -102v51z" />
<glyph unicode="~" d="M29 367q0 111 69 194q76 92 193 92q98 0 246 -82l125 -69q125 -70 202 -70q92 0 131 55q20 29 47 129h68q0 -90 -55 -174q-76 -115 -209 -114q-92 0 -244 84l-125 69q-125 70 -205 70q-88 0 -129 -57q-25 -33 -49 -127h-65z" />
<glyph unicode="&#xa1;" horiz-adv-x="493" d="M156 858q0 43 29.5 71.5t70.5 28.5t70.5 -28.5t29.5 -71.5t-29.5 -71.5t-70.5 -28.5t-70.5 28.5t-29.5 71.5zM170 -350q0 4 27 393l34 510q4 51 25 51q18 0 23 -51q16 -223 16 -367q0 -76 17.5 -266t17.5 -221t-49.5 -61.5t-77.5 -30.5q-33 0 -33 43z" />
<glyph unicode="&#xa2;" d="M168 623q0 201 145 315q104 82 258 106v332h47v-332q39 -4 76 -6q68 -8 127 -32l80 -33q47 -27 47 -80q0 -201 -37 -201q-8 0 -26 74q-25 90 -68 141q-70 80 -199 90v-682q98 0 181 37q53 23 106 66q45 37 53 37q10 0 11 -13q0 -8 -8 -20q-39 -57 -123 -117 q-116 -80 -220 -80v-190q0 -33 -20 -33q-27 0 -27 33v188q-135 12 -241 86q-162 109 -162 314zM317 678q0 -158 72 -242q55 -67 182 -114v675q-102 -14 -170 -84q-84 -86 -84 -235z" />
<glyph unicode="&#xa3;" d="M53 104q0 61 46 103.5t118 42.5q61 0 225 -66q41 74 41 135q0 100 -88 281q-57 0 -163.5 -5t-112.5 -5l-25 65q47 0 140.5 -4t140.5 -4q-31 66 -64 129q-39 92 -39 166q0 145 105 260q111 125 272 125q137 0 233.5 -75.5t96.5 -192.5q0 -55 -23 -55q-10 0 -20 20 q-23 39 -25 43q-45 66 -127 115q-94 55 -192 55q-86 0 -148 -51q-68 -55 -67 -142q0 -76 67 -215q47 -90 95 -182q-19 0 325 8l-28 -67q-246 12 -279 12q35 -96 35 -164q0 -156 -96 -272q164 -68 268 -68q92 0 172 54q49 33 104 96q45 53 58 53q14 0 14 -16q0 -72 -61 -170 q-86 -137 -230 -138q-92 0 -227 62q-57 25 -137 69q-129 -133 -238 -133q-68 0 -113 29q-53 37 -53 102zM109 111q-1 -91 108 -91q98 0 184 111q-125 68 -192 68q-100 0 -100 -88z" />
<glyph unicode="&#xa4;" d="M82 1069l65 64l142 -140q131 94 280 94q147 0 279 -94l141 140l66 -64l-144 -143q98 -100 99 -283q0 -170 -97 -278l138 -138l-62 -61l-135 135q-129 -96 -285 -96q-164 0 -286 96l-136 -135l-61 61l137 138q-96 104 -96 278q0 162 98 283zM211 643q0 -147 105.5 -250.5 t252.5 -103.5q145 0 251 104.5t106 249.5q0 147 -105 254t-252 107t-252.5 -106.5t-105.5 -254.5z" />
<glyph unicode="&#xa5;" d="M2 1284q0 20 21 21q-8 0 68.5 -6.5t150.5 -6.5q68 0 142.5 6.5t66.5 6.5q20 0 20 -21q0 -12 -14 -16q-35 -16 -142 -25q168 -303 314 -534q68 104 161 277t123 257q-117 8 -170 25q-14 4 -14 16q0 20 21 21q-6 0 66.5 -6.5t137.5 -6.5q61 0 130 6.5t61 6.5q20 0 20 -21 q0 -10 -14 -16q-41 -16 -131 -25q-39 -53 -146 -207q-29 -51 -92 -155q119 0 238 8v-55q-121 8 -260 8q-33 -59 -88 -158q205 0 348 8v-55q-172 8 -369 8q0 -459 6 -596q133 -8 193 -24q14 -4 14 -17q0 -20 -20 -20q8 0 -82 6t-176 6q-88 0 -179.5 -6t-82.5 -6q-20 0 -21 20 q0 12 14 17q59 16 193 24q6 141 6 596q-199 0 -371 -8v55q145 -8 342 -8q-31 51 -94 158q-135 0 -248 -8v55q111 -8 226 -8l-226 362q-47 4 -129 25q-14 4 -14 16z" />
<glyph unicode="&#xa6;" horiz-adv-x="493" d="M201 -358v716h90v-716h-90zM201 666v716h90v-716h-90z" />
<glyph unicode="&#xa7;" d="M184 793q0 57 27 106q4 6 51 72q-12 53 -12 82q0 135 104 211q90 63 219 63q115 0 203 -55q104 -66 105 -178q0 -63 -41 -127q-37 -55 -62 -56q-14 0 -14 13q0 6 16.5 38.5t16.5 61.5q0 84 -95.5 158.5t-201.5 74.5q-74 0 -125 -32q-63 -41 -64 -119q0 -70 84 -129 q51 -33 196.5 -97.5t213.5 -109.5q127 -84 127 -227q0 -86 -78 -193q12 -53 12 -82q0 -145 -112 -225q-92 -68 -217 -68q-117 0 -203 58q-104 70 -105 194q0 63 41 127q37 55 62 56q14 0 14 -13q0 -4 -16.5 -36.5t-16.5 -63.5q0 -84 95.5 -159t201.5 -75q74 0 129 33 q66 43 66 119q0 70 -84 133q-53 37 -195 105q-152 70 -215 112q-127 84 -127 228zM244 846q0 -96 149 -182q2 -2 260 -127q115 -56 176 -144q43 39 43 92q0 96 -149 183q-43 25 -260 125q-117 53 -176 131q-43 -39 -43 -78z" />
<glyph unicode="&#xa8;" horiz-adv-x="614" d="M88 897q0 33 22.5 55.5t55.5 22.5t55.5 -22.5t22.5 -55.5t-22.5 -55.5t-55.5 -22.5t-55.5 22.5t-22.5 55.5zM375 897q0 33 22.5 55.5t55.5 22.5t55 -22.5t22 -55.5t-22.5 -55.5t-54.5 -22.5q-33 0 -55.5 22.5t-22.5 55.5z" />
<glyph unicode="&#xa9;" d="M90 991q0 193 142.5 327t336.5 134q195 0 337.5 -134t142.5 -327t-142.5 -327t-337.5 -134t-337 134.5t-142 326.5zM162 991q0 -162 119.5 -275.5t287.5 -113.5t288 113.5t120 275.5q0 164 -120 276.5t-288 112.5t-287.5 -112.5t-119.5 -276.5zM319 987q0 123 82 211 q76 84 170 84q47 0 90.5 -16.5t55.5 -16.5q10 0 35 31h30v-209l-30 -6q-35 86 -52 113q-43 61 -102 61q-145 0 -145 -250q0 -229 151 -229q115 -1 144 149h43q-16 -90 -39 -123q-49 -74 -168 -73q-115 0 -190 77.5t-75 196.5z" />
<glyph unicode="&#xaa;" horiz-adv-x="796" d="M88 819q0 96 76 154q68 53 166 53q76 0 178 -41q0 129 -16 168q-23 55 -111 55q-68 0 -144.5 -31.5t-84.5 -31.5q-18 0 -19 16q0 33 103.5 82t189.5 49q205 0 205 -188v-162q-2 -100 -2 -115q0 -106 28 -106q29 0 69 30.5t42 30.5q14 0 14 -12q0 -31 -69 -82 q-80 -59 -158 -59q-47 0 -47 35v79q-154 -115 -246 -114q-76 0 -125 55t-49 135zM209 840q0 -133 121 -133q76 0 178 88v151q-90 37 -150 37q-150 0 -149 -143z" />
<glyph unicode="&#xab;" horiz-adv-x="645" d="M31 324q0 20 35 59q66 76 225 246q25 25 33 24q12 0 12 -12q0 -2 -10 -20q-72 -113 -185 -297q76 -121 185 -297q10 -18 10 -21q0 -12 -12 -12q-8 0 -33 24q-59 59 -225 246q-35 39 -35 60zM289 324q0 20 35 59q66 76 225 246q25 25 33 24q12 0 12 -12q0 -2 -10 -20 q-72 -113 -185 -297q76 -121 185 -297q10 -18 10 -21q0 -12 -12 -12q-8 0 -33 24q-59 59 -225 246q-35 39 -35 60z" />
<glyph unicode="&#xac;" d="M78 582v84h983v-347h-90v263h-893z" />
<glyph unicode="&#xad;" horiz-adv-x="796" d="M109 270v107h579v-107h-579z" />
<glyph unicode="&#xae;" d="M90 991q0 193 142.5 327t336.5 134q195 0 337.5 -134t142.5 -327t-142.5 -327t-337.5 -134t-337 134.5t-142 326.5zM162 991q0 -162 119.5 -275.5t287.5 -113.5t288 113.5t120 275.5t-120 275.5t-288 113.5t-287.5 -113.5t-119.5 -275.5zM332 737v39q49 4 62.5 17.5 t13.5 64.5v293q0 47 -13.5 57.5t-62.5 16.5v41h250q223 0 223 -133q0 -66 -53 -99q-27 -18 -97 -35q72 -43 99 -122q20 -66 41 -66q33 0 32 68h41q0 -57 -24 -97q-31 -45 -84 -45q-74 0 -101 66q-16 59 -34.5 121.5t-81.5 62.5h-23v-123q0 -57 11.5 -68.5t66.5 -19.5v-39 h-266zM520 1030h43q117 0 117 92q0 102 -88 103q-47 0 -62 -21q-10 -12 -10 -57v-117z" />
<glyph unicode="&#xaf;" horiz-adv-x="614" d="M106 856v80h412v-80h-412z" />
<glyph unicode="&#xb0;" horiz-adv-x="985" d="M240 1042q0 102 73.5 176t178.5 74q104 0 177.5 -74t73.5 -176q0 -109 -74.5 -180t-181.5 -71q-104 0 -175.5 71.5t-71.5 179.5zM317 1042q0 -72 51.5 -123t123.5 -51t123 51.5t51 122.5q0 70 -51.5 121t-122.5 51q-72 0 -123.5 -51t-51.5 -121z" />
<glyph unicode="&#xb1;" d="M78 -94h983v-84h-983v84zM78 451v84h446v450h90v-450h447v-84h-447v-451h-90v451h-446z" />
<glyph unicode="&#xb2;" horiz-adv-x="757" d="M72 526q0 12 32 37q45 33 91 68q147 117 217 194q111 125 110 234q0 63 -45 101t-106 38q-84 0 -144 -51q-37 -31 -75 -96q-31 -51 -43 -52q-20 0 -21 21q0 59 84 149q104 111 244 111q88 0 151 -47q72 -55 72 -154q0 -125 -190 -309q-115 -113 -254 -207l4 -4 q219 6 387 49q12 139 43 140q16 0 16 -21q0 -6 -4 -62.5t-4 -101.5q0 -20 4 -63t4 -49q0 -23 -16 -23q-25 0 -43 72q-82 12 -244 12q-41 0 -121 -5t-121 -5q-29 0 -28 24z" />
<glyph unicode="&#xb3;" horiz-adv-x="757" d="M74 635q0 18 22 18q6 0 84 -51t164 -51q88 0 142.5 45t54.5 117t-68 110q-53 31 -123 31q-35 0 -76 -9t-47 -9q-25 0 -24 18q0 23 75 47.5t134 24.5h26q76 76 76 147q0 57 -45 95t-111 38q-80 0 -149.5 -57t-71.5 -57q-23 0 -22 18q0 31 84 94q100 76 211 76 q78 0 133 -39q63 -47 63 -127q0 -106 -112 -199q156 -49 155 -182q0 -106 -84 -169.5t-200 -63.5q-102 0 -203 57q-88 51 -88 78z" />
<glyph unicode="&#xb4;" horiz-adv-x="614" d="M256 786q0 10 12 25q68 80 168 199q9 12 19 12h125q14 0 14 -12q0 -8 -12 -17q-113 -80 -281 -205q-23 -16 -31 -16q-14 0 -14 14z" />
<glyph unicode="&#xb6;" d="M168 979q0 246 199 379q168 113 413 112h236v-75h-119v-1776h-76v1776h-125v-1776h-75v895q-170 20 -291 117q-162 127 -162 348z" />
<glyph unicode="&#xb7;" d="M469 647q0 41 29.5 71t70.5 30t71 -30t30 -71t-30 -70.5t-71 -29.5t-70.5 29.5t-29.5 70.5z" />
<glyph unicode="&#xb8;" horiz-adv-x="614" d="M145 -279q0 14 15 15q6 0 31.5 -13.5t54.5 -13.5q35 0 58.5 23.5t23.5 54.5q0 59 -72 59q-10 0 -25.5 -2t-17.5 -2q-12 0 -12 13q0 6 18 32l84 125h47l-78 -116q29 4 43 4q111 0 111 -101q0 -59 -43 -100t-111 -41q-45 0 -86 22.5t-41 40.5z" />
<glyph unicode="&#xb9;" horiz-adv-x="757" d="M168 1206q0 14 18 21q18 0 131 16q35 6 76 27.5t51 21.5q18 0 19 -18q0 -4 -2 -33t-2 -47q0 -51 -3 -154.5t-3 -150.5q0 -223 4 -324q57 -6 145 -22q18 -4 19 -21q0 -18 -25 -18q6 0 -60.5 4t-136.5 4t-136 -4t-60 -4q-25 0 -25 18q0 14 19 21q37 12 145 22q4 101 4 324 v307q-61 -10 -135 -10q-43 0 -43 20z" />
<glyph unicode="&#xba;" horiz-adv-x="909" d="M86 926q0 162 139 268q127 98 291 98q137 0 219 -69q90 -76 90 -217q0 -172 -118.5 -274.5t-296.5 -102.5q-143 0 -233.5 78.5t-90.5 218.5zM217 967q0 -297 238 -297q119 0 182 82q57 76 57 198q0 301 -223 301q-115 0 -184.5 -73.5t-69.5 -210.5z" />
<glyph unicode="&#xbb;" horiz-adv-x="645" d="M51 6q0 2 10 21q74 115 185 297q-76 121 -185 297q-10 18 -10 20q0 12 12 12q8 0 33 -24q59 -59 226 -246q35 -39 34 -59q1 -21 -34 -60q-66 -76 -226 -246q-25 -25 -33 -24q-12 0 -12 12zM309 6q0 2 10 21q74 115 185 297q-76 121 -185 297q-10 18 -10 20q0 12 13 12 q8 0 32 -24q59 -59 226 -246q35 -39 34 -59q1 -21 -34 -60q-66 -76 -226 -246q-25 -25 -32 -24q-12 0 -13 12z" />
<glyph unicode="&#xbc;" horiz-adv-x="1669" d="M137 1206q0 14 19 21q43 0 131 16q33 4 78 26.5t49 22.5q18 0 18 -18q0 -4 -2 -33t-2 -47q0 -51 -3 -154.5t-3 -150.5q0 -223 4 -324q57 -6 145 -22q18 -4 19 -21q0 -18 -25 -18q6 0 -60.5 4t-135.5 4q-70 0 -136.5 -4t-60.5 -4q-25 0 -25 18q0 14 19 21q37 12 145 22 q4 101 4 324v307q-61 -10 -135 -10q-43 0 -43 20zM473 0l725 1292h68l-725 -1292h-68zM954 193q0 10 39 65l346 492q23 31 43 30q20 0 21 -22q0 -16 -3 -139t-3 -173v-190h102q16 150 43 150q18 0 19 -17q0 -12 -4.5 -67.5t-4.5 -71.5q0 -33 4.5 -81t4.5 -54q0 -23 -17 -23 q-27 0 -45 84q-10 0 -50 2t-52 2q0 -82 4 -127q41 -6 104 -22q18 -4 19 -21q0 -18 -25 -18q6 0 -48 4t-108 4q-68 0 -131 -4t-55 -4q-25 0 -24 18q0 16 18 21q6 2 135 22q4 43 4 127q-45 0 -169 -3t-134 -3q-33 0 -33 19zM1053 256h239v344h-4z" />
<glyph unicode="&#xbd;" horiz-adv-x="1669" d="M88 1206q0 14 18 21q43 0 132 16q33 4 77.5 26.5t49.5 22.5q18 0 18 -18q0 -4 -2 -33t-2 -47q0 -51 -3 -154.5t-3 -150.5q0 -223 4 -324q57 -6 145 -22q18 -4 19 -21q0 -18 -25 -18q6 0 -60.5 4t-136.5 4t-136 -4t-60 -4q-25 0 -25 18q0 14 19 21q37 12 145 22 q4 101 4 324v307q-61 -10 -135 -10q-43 0 -43 20zM424 0l725 1292h68l-725 -1292h-68zM989 12q0 12 31 37q47 35 92 70q150 119 217 194q111 125 111 234q0 63 -45 101t-107 38q-84 0 -143 -51q-37 -31 -76 -96q-31 -51 -43 -52q-20 0 -20 21q0 59 84 149q104 111 243 111 q88 0 152 -47q72 -55 71 -154q0 -125 -190 -309q-115 -113 -254 -207l4 -4q219 6 387 49q6 45 13 88q10 51 28 52q18 0 19 -21l-5 -59q-4 -58 -4 -105q0 -31 4.5 -68.5t4.5 -43.5q0 -23 -17 -23q-29 0 -43 72q-82 12 -243 12q-41 0 -121 -5t-121 -5q-29 0 -29 22z" />
<glyph unicode="&#xbe;" horiz-adv-x="1669" d="M94 635q0 18 23 18q6 0 84 -51t164 -51q88 0 142 45t54 117t-67 110q-53 31 -123 31q-35 0 -76 -9t-47 -9q-25 0 -25 18q0 23 75 47.5t134 24.5h27q76 76 76 147q0 57 -45.5 95t-110.5 38q-80 0 -149.5 -57t-71.5 -57q-23 0 -23 18q0 31 84 94q100 76 211 76 q78 0 133 -39q63 -47 64 -127q0 -106 -113 -199q156 -49 156 -182q0 -106 -84 -169.5t-201 -63.5q-102 0 -203 57q-88 51 -88 78zM506 0l725 1292h67l-725 -1292h-67zM973 193q0 10 39 65l346 492q23 31 43 30q20 0 20 -22q0 -16 -3 -139t-3 -173v-190h103q16 150 43 150 q18 0 18 -17q0 -6 -4 -64.5t-4 -74.5q0 -33 4 -82t4 -53q0 -23 -18 -23q-16 0 -43 84q-10 0 -50.5 2t-52.5 2q0 -82 4 -127q41 -6 105 -22q18 -4 18 -21q0 -18 -24 -18q6 0 -48.5 4t-107.5 4q-68 0 -131.5 -4t-54.5 -4q-25 0 -25 18q0 16 18 21q6 2 136 22q4 43 4 127 q-45 0 -169 -3t-134 -3q-33 0 -33 19zM1071 256h240v344h-4z" />
<glyph unicode="&#xbf;" horiz-adv-x="833" d="M98 -109q0 106 90 218l168 176q90 96 90 161q0 43 -30.5 84t-30.5 45q0 18 21 19q27 0 73 -59q57 -70 58 -146q0 -86 -62 -164q-4 -6 -149 -155q-104 -109 -129 -142q-35 -49 -35 -98q0 -66 52 -111t128 -45q98 0 197 70q109 76 108 168q0 29 -14.5 63.5t-14.5 40.5 q0 18 17 19q31 0 64.5 -76t33.5 -129q0 -104 -115 -170q-96 -53 -210 -53q-115 0 -207 76q-102 84 -103 208zM340 858q0 43 29.5 71.5t70.5 28.5t71 -28.5t30 -71.5t-30 -71.5t-71 -28.5t-70.5 28.5t-29.5 71.5z" />
<glyph unicode="&#xc0;" horiz-adv-x="1402" d="M4 8q0 12 14 17q53 16 168 24q100 174 310 701q55 139 133 329q-82 176 -121 254q55 18 151 68q74 -240 267 -672l301 -680q106 -8 151 -24q14 -6 15 -17q0 -20 -21 -20q10 0 -76 6t-170 6q-96 0 -189 -6t-83 -6q-20 0 -20 20q0 12 14 17q55 16 203 24q-66 189 -138 357 h-501q-57 -160 -111 -357q156 -8 231 -24q14 -4 15 -17q0 -20 -21 -20q10 0 -82 6t-182 6q-80 0 -163 -6t-74 -6q-20 0 -21 20zM426 453h469l-240 569q-206 -503 -229 -569zM477 1665q0 12 14 12h125q10 0 19 -12q57 -66 168 -199q12 -14 12 -25q0 -14 -14 -14q-8 0 -31 16 q-168 127 -281 205q-12 8 -12 17z" />
<glyph unicode="&#xc1;" horiz-adv-x="1402" d="M4 8q0 12 14 17q53 16 168 24q100 174 310 701q55 139 133 329q-82 176 -121 254q55 18 151 68q74 -240 267 -672l301 -680q106 -8 151 -24q14 -6 15 -17q0 -20 -21 -20q10 0 -76 6t-170 6q-96 0 -189 -6t-83 -6q-20 0 -20 20q0 12 14 17q55 16 203 24q-66 189 -138 357 h-501q-57 -160 -111 -357q156 -8 231 -24q14 -4 15 -17q0 -20 -21 -20q10 0 -82 6t-182 6q-80 0 -163 -6t-74 -6q-20 0 -21 20zM426 453h469l-240 569q-206 -503 -229 -569zM610 1441q0 10 12 25q68 80 168 199q9 12 19 12h125q14 0 14 -12q0 -8 -12 -17q-113 -80 -281 -205 q-23 -16 -31 -16q-14 0 -14 14z" />
<glyph unicode="&#xc2;" horiz-adv-x="1402" d="M4 8q0 12 14 17q53 16 168 24q100 174 310 701q55 139 133 329q-82 176 -121 254q55 18 151 68q74 -240 267 -672l301 -680q106 -8 151 -24q14 -6 15 -17q0 -20 -21 -20q10 0 -76 6t-170 6q-96 0 -189 -6t-83 -6q-20 0 -20 20q0 12 14 17q55 16 203 24q-66 189 -138 357 h-501q-57 -160 -111 -357q156 -8 231 -24q14 -4 15 -17q0 -20 -21 -20q10 0 -82 6t-182 6q-80 0 -163 -6t-74 -6q-20 0 -21 20zM426 453h469l-240 569q-206 -503 -229 -569zM444 1437q0 8 29 47l145 193h78l158 -191q35 -43 35 -49q0 -10 -13 -10q-10 0 -90 57 q-63 45 -129 93q-74 -59 -182 -144q-10 -6 -16 -6q-14 0 -15 10z" />
<glyph unicode="&#xc3;" horiz-adv-x="1402" d="M4 8q0 12 14 17q53 16 168 24q100 174 310 701q55 139 133 329q-82 176 -121 254q55 18 151 68q74 -240 267 -672l301 -680q106 -8 151 -24q14 -6 15 -17q0 -20 -21 -20q10 0 -76 6t-170 6q-96 0 -189 -6t-83 -6q-20 0 -20 20q0 12 14 17q55 16 203 24q-66 189 -138 357 h-501q-57 -160 -111 -357q156 -8 231 -24q14 -4 15 -17q0 -20 -21 -20q10 0 -82 6t-182 6q-80 0 -163 -6t-74 -6q-20 0 -21 20zM426 453h469l-240 569q-206 -503 -229 -569zM434 1489q0 45 25 90q33 61 92 61q33 0 132.5 -42t142.5 -42q35 0 56 40t30 40q14 0 14 -16 q0 -43 -25 -91q-35 -63 -94 -63q-27 0 -139.5 42t-136.5 42q-39 0 -56.5 -42t-23.5 -42q-16 0 -17 23z" />
<glyph unicode="&#xc4;" horiz-adv-x="1402" d="M4 8q0 12 14 17q53 16 168 24q100 174 310 701q55 139 133 329q-82 176 -121 254q55 18 151 68q74 -240 267 -672l301 -680q106 -8 151 -24q14 -6 15 -17q0 -20 -21 -20q10 0 -76 6t-170 6q-96 0 -189 -6t-83 -6q-20 0 -20 20q0 12 14 17q55 16 203 24q-66 189 -138 357 h-501q-57 -160 -111 -357q156 -8 231 -24q14 -4 15 -17q0 -20 -21 -20q10 0 -82 6t-182 6q-80 0 -163 -6t-74 -6q-20 0 -21 20zM426 453h469l-240 569q-206 -503 -229 -569zM442 1552q0 33 22.5 55.5t55.5 22.5t55.5 -22.5t22.5 -55.5t-22.5 -55.5t-55.5 -22.5t-55.5 22.5 t-22.5 55.5zM729 1552q0 33 22.5 55.5t55.5 22.5t55 -22.5t22 -55.5t-22.5 -55.5t-54.5 -22.5q-33 0 -55.5 22.5t-22.5 55.5z" />
<glyph unicode="&#xc5;" horiz-adv-x="1402" d="M4 8q0 12 14 17q53 16 168 24q100 174 310 701q55 139 133 329q-82 176 -121 254q55 18 151 68q74 -240 267 -672l301 -680q106 -8 151 -24q14 -6 15 -17q0 -20 -21 -20q10 0 -76 6t-170 6q-96 0 -189 -6t-83 -6q-20 0 -20 20q0 12 14 17q55 16 203 24q-66 189 -138 357 h-501q-57 -160 -111 -357q156 -8 231 -24q14 -4 15 -17q0 -20 -21 -20q10 0 -82 6t-182 6q-80 0 -163 -6t-74 -6q-20 0 -21 20zM426 453h469l-240 569q-206 -503 -229 -569zM521 1585q0 66 46 111.5t111 45.5q66 0 112 -45.5t46 -111.5t-46 -112t-112 -46t-111.5 46 t-45.5 112zM572 1585q0 -43 29.5 -75t76.5 -32q49 0 78 32t29 75t-29 74.5t-78 31.5q-47 0 -76.5 -31.5t-29.5 -74.5z" />
<glyph unicode="&#xc6;" horiz-adv-x="2086" d="M-16 8q0 10 14 17q49 18 135 24q49 63 195 264q98 135 266 377q219 324 364 547q-6 0 -165 31q-14 4 -15 16q0 20 21 21q51 0 154.5 -6.5t154.5 -6.5q399 0 709 35q20 86 43 86q16 0 16 -14q0 -6 -6 -72.5t-6 -99.5q0 -27 6 -107t6 -86q0 -29 -23 -28q-25 0 -43 186 q-205 53 -483 53h-65q-49 -2 -70 -2q-14 -137 -14 -563h39q340 0 538 49q12 147 49 148q16 0 17 -21q0 -4 -6.5 -85t-6.5 -114q0 -39 6.5 -118.5t6.5 -89.5q0 -23 -17 -23q-31 0 -49 174q-184 33 -538 33h-39q0 -446 14 -584q27 -2 80 -2q301 0 553 76q12 168 43 168 q20 0 20 -21q0 -14 -6 -93t-6 -114q0 -20 6 -73t6 -70q0 -18 -20 -18q-14 0 -37 63q-215 35 -723 35q-41 0 -124 -6t-124 -6q-20 0 -20 20q0 12 14 17q51 16 172 24q14 139 14 584h-426q-248 -397 -321 -584q168 -8 252 -24q14 -4 14 -17q0 -20 -20 -20q18 0 -94.5 6 t-235.5 6q-70 0 -141.5 -6t-63.5 -6q-20 0 -20 20zM643 680h397q0 94 -6 291q-8 225 -8 272h-4z" />
<glyph unicode="&#xc7;" horiz-adv-x="1327" d="M123 616q0 301 188.5 506t468.5 205q158 0 373 -65q8 53 29 131q6 18 20 18q16 0 17 -20l-9 -114q-10 -114 -10 -165q0 -55 5 -169t5 -116q0 -29 -16 -28q-14 0 -20 26q-31 117 -31 275q-207 166 -420 166q-205 0 -336 -129q-139 -139 -139 -377q0 -291 170 -502 q174 -219 428 -219q104 0 190 41q55 27 111 78q45 41 51 41q16 0 16 -15q0 -8 -8 -20q-39 -61 -151 -121q-143 -78 -303 -78l-47 -69q29 4 43 4q111 0 110 -101q0 -59 -43 -100t-110 -41q-45 0 -86 22.5t-41 40.5q0 14 14 15q6 0 31.5 -13.5t54.5 -13.5q35 0 58.5 23.5 t23.5 54.5q0 59 -72 59q-10 0 -25.5 -2t-17.5 -2q-12 0 -12 13q0 6 18 32l56 80q-256 12 -420 192.5t-164 456.5z" />
<glyph unicode="&#xc8;" horiz-adv-x="1251" d="M82 8q0 12 14 17q51 16 172 24q8 137 8 600q0 457 -8 594q-121 8 -172 25q-14 4 -14 16q0 20 20 21q39 0 120 -6.5t122 -6.5q399 0 709 35q20 86 41 86q16 0 16 -14q0 -6 -6 -72.5t-6 -99.5q0 -27 6 -107t6 -86q0 -29 -23 -28q-25 0 -43 186q-205 53 -483 53h-65 q-49 -2 -70 -2q-14 -137 -14 -563h39q340 0 538 49q12 147 49 148q16 0 17 -21q0 -4 -6.5 -85t-6.5 -114q0 -41 6.5 -123.5t6.5 -84.5q0 -23 -17 -23q-31 0 -49 174q-184 33 -538 33h-39q0 -446 14 -584q27 -2 80 -2q301 0 553 76q12 168 43 168q20 0 20 -21q0 -14 -6 -93 t-6 -114q0 -20 6 -73t6 -70q0 -18 -20 -18q-14 0 -37 63q-215 35 -721 35q-41 0 -122 -6t-120 -6q-20 0 -20 20zM432 1665q0 12 14 12h125q10 0 19 -12q57 -66 168 -199q12 -14 12 -25q0 -14 -14 -14q-8 0 -31 16q-168 127 -281 205q-12 8 -12 17z" />
<glyph unicode="&#xc9;" horiz-adv-x="1251" d="M82 8q0 12 14 17q51 16 172 24q8 137 8 600q0 457 -8 594q-121 8 -172 25q-14 4 -14 16q0 20 20 21q39 0 120 -6.5t122 -6.5q399 0 709 35q20 86 41 86q16 0 16 -14q0 -6 -6 -72.5t-6 -99.5q0 -27 6 -107t6 -86q0 -29 -23 -28q-25 0 -43 186q-205 53 -483 53h-65 q-49 -2 -70 -2q-14 -137 -14 -563h39q340 0 538 49q12 147 49 148q16 0 17 -21q0 -4 -6.5 -85t-6.5 -114q0 -41 6.5 -123.5t6.5 -84.5q0 -23 -17 -23q-31 0 -49 174q-184 33 -538 33h-39q0 -446 14 -584q27 -2 80 -2q301 0 553 76q12 168 43 168q20 0 20 -21q0 -14 -6 -93 t-6 -114q0 -20 6 -73t6 -70q0 -18 -20 -18q-14 0 -37 63q-215 35 -721 35q-41 0 -122 -6t-120 -6q-20 0 -20 20zM575 1441q0 10 12 25q68 80 168 199q9 12 19 12h125q14 0 14 -12q0 -8 -12 -17q-113 -80 -281 -205q-23 -16 -31 -16q-14 0 -14 14z" />
<glyph unicode="&#xca;" horiz-adv-x="1251" d="M82 8q0 12 14 17q51 16 172 24q8 137 8 600q0 457 -8 594q-121 8 -172 25q-14 4 -14 16q0 20 20 21q39 0 120 -6.5t122 -6.5q399 0 709 35q20 86 41 86q16 0 16 -14q0 -6 -6 -72.5t-6 -99.5q0 -27 6 -107t6 -86q0 -29 -23 -28q-25 0 -43 186q-205 53 -483 53h-65 q-49 -2 -70 -2q-14 -137 -14 -563h39q340 0 538 49q12 147 49 148q16 0 17 -21q0 -4 -6.5 -85t-6.5 -114q0 -41 6.5 -123.5t6.5 -84.5q0 -23 -17 -23q-31 0 -49 174q-184 33 -538 33h-39q0 -446 14 -584q27 -2 80 -2q301 0 553 76q12 168 43 168q20 0 20 -21q0 -14 -6 -93 t-6 -114q0 -20 6 -73t6 -70q0 -18 -20 -18q-14 0 -37 63q-215 35 -721 35q-41 0 -122 -6t-120 -6q-20 0 -20 20zM419 1437q0 8 29 47l145 193h78l158 -191q35 -43 35 -49q0 -10 -13 -10q-10 0 -90 57q-63 45 -129 93q-74 -59 -182 -144q-10 -6 -16 -6q-14 0 -15 10z" />
<glyph unicode="&#xcb;" horiz-adv-x="1251" d="M82 8q0 12 14 17q51 16 172 24q8 137 8 600q0 457 -8 594q-121 8 -172 25q-14 4 -14 16q0 20 20 21q39 0 120 -6.5t122 -6.5q399 0 709 35q20 86 41 86q16 0 16 -14q0 -6 -6 -72.5t-6 -99.5q0 -27 6 -107t6 -86q0 -29 -23 -28q-25 0 -43 186q-205 53 -483 53h-65 q-49 -2 -70 -2q-14 -137 -14 -563h39q340 0 538 49q12 147 49 148q16 0 17 -21q0 -4 -6.5 -85t-6.5 -114q0 -41 6.5 -123.5t6.5 -84.5q0 -23 -17 -23q-31 0 -49 174q-184 33 -538 33h-39q0 -446 14 -584q27 -2 80 -2q301 0 553 76q12 168 43 168q20 0 20 -21q0 -14 -6 -93 t-6 -114q0 -20 6 -73t6 -70q0 -18 -20 -18q-14 0 -37 63q-215 35 -721 35q-41 0 -122 -6t-120 -6q-20 0 -20 20zM407 1552q0 33 22.5 55.5t55.5 22.5t55.5 -22.5t22.5 -55.5t-22.5 -55.5t-55.5 -22.5t-55.5 22.5t-22.5 55.5zM694 1552q0 33 22.5 55.5t55.5 22.5t55 -22.5 t22 -55.5t-22.5 -55.5t-54.5 -22.5q-33 0 -55.5 22.5t-22.5 55.5z" />
<glyph unicode="&#xcc;" horiz-adv-x="681" d="M78 8q0 12 14 17q51 16 172 24q8 137 8 598q0 459 -8 596q-121 8 -172 25q-14 4 -14 16q0 20 20 21q-8 0 76 -6.5t166 -6.5t166 6.5t76 6.5q20 0 20 -21q0 -12 -14 -16q-51 -16 -172 -25q-8 -143 -8 -596q0 -455 8 -598q121 -8 172 -24q14 -4 14 -17q0 -20 -20 -20 q8 0 -76 6t-166 6t-166 -6t-76 -6q-20 0 -20 20zM96 1665q0 12 14 12h125q10 0 19 -12q57 -66 168 -199q12 -14 12 -25q0 -14 -14 -14q-8 0 -31 16q-168 127 -281 205q-12 8 -12 17z" />
<glyph unicode="&#xcd;" horiz-adv-x="681" d="M78 8q0 12 14 17q51 16 172 24q8 137 8 598q0 459 -8 596q-121 8 -172 25q-14 4 -14 16q0 20 20 21q-8 0 76 -6.5t166 -6.5t166 6.5t76 6.5q20 0 20 -21q0 -12 -14 -16q-51 -16 -172 -25q-8 -143 -8 -596q0 -455 8 -598q121 -8 172 -24q14 -4 14 -17q0 -20 -20 -20 q8 0 -76 6t-166 6t-166 -6t-76 -6q-20 0 -20 20zM291 1441q0 10 12 25q68 80 168 199q9 12 19 12h125q14 0 14 -12q0 -8 -12 -17q-113 -80 -281 -205q-23 -16 -31 -16q-14 0 -14 14z" />
<glyph unicode="&#xce;" horiz-adv-x="681" d="M78 8q0 12 14 17q51 16 172 24q8 137 8 598q0 459 -8 596q-121 8 -172 25q-14 4 -14 16q0 20 20 21q-8 0 76 -6.5t166 -6.5t166 6.5t76 6.5q20 0 20 -21q0 -12 -14 -16q-51 -16 -172 -25q-8 -143 -8 -596q0 -455 8 -598q121 -8 172 -24q14 -4 14 -17q0 -20 -20 -20 q8 0 -76 6t-166 6t-166 -6t-76 -6q-20 0 -20 20zM135 1437q0 8 29 47l145 193h78l158 -191q35 -43 35 -49q0 -10 -13 -10q-10 0 -90 57q-63 45 -129 93q-74 -59 -182 -144q-10 -6 -16 -6q-14 0 -15 10z" />
<glyph unicode="&#xcf;" horiz-adv-x="681" d="M78 8q0 12 14 17q51 16 172 24q8 137 8 598q0 459 -8 596q-121 8 -172 25q-14 4 -14 16q0 20 20 21q-8 0 76 -6.5t166 -6.5t166 6.5t76 6.5q20 0 20 -21q0 -12 -14 -16q-51 -16 -172 -25q-8 -143 -8 -596q0 -455 8 -598q121 -8 172 -24q14 -4 14 -17q0 -20 -20 -20 q8 0 -76 6t-166 6t-166 -6t-76 -6q-20 0 -20 20zM123 1552q0 33 22.5 55.5t55.5 22.5t55.5 -22.5t22.5 -55.5t-22.5 -55.5t-55.5 -22.5t-55.5 22.5t-22.5 55.5zM410 1552q0 33 22.5 55.5t55.5 22.5t55 -22.5t22 -55.5t-22.5 -55.5t-54.5 -22.5q-33 0 -55.5 22.5t-22.5 55.5z " />
<glyph unicode="&#xd0;" horiz-adv-x="1402" d="M61 8q0 12 15 17q51 16 172 24q8 137 8 592q-71 0 -190 -4v57q72 -6 190 -6q0 428 -8 555q-121 8 -172 25q-14 4 -15 16q0 20 21 21q39 0 120 -6.5t122 -6.5q53 0 156.5 9.5t156.5 9.5q313 0 493 -181q174 -176 175 -471q0 -307 -190.5 -492t-477.5 -185q-51 0 -155.5 9 t-157.5 9q-41 0 -122 -6t-120 -6q-20 0 -21 20zM391 641q0 -449 8 -592q43 -6 86 -10q74 -10 123 -10q254 0 399.5 169t145.5 461q0 299 -174 463q-150 141 -371 142q-47 0 -123.5 -10.5t-85.5 -10.5q-8 -131 -8 -555q53 0 354 6v-57q-201 4 -354 4z" />
<glyph unicode="&#xd1;" horiz-adv-x="1441" d="M61 8q0 10 15 17q45 16 151 24q37 203 37 795q0 55 -3 148t-3 124q0 23 -41 68q-49 53 -121 78q-18 6 -18 16q0 25 26 25q14 0 56.5 -5.5t54.5 -5.5q18 0 104 11q18 -25 56 -78q465 -618 760 -967q12 80 12 242q0 553 -35 743q-121 8 -172 25q-14 4 -14 16q0 20 20 21 q-10 0 69 -6.5t159 -6.5q68 0 140 6.5t66 6.5q20 0 21 -21q0 -12 -15 -16q-51 -16 -153 -25q-41 -176 -41 -743q0 -109 3 -295.5t3 -204.5q0 -35 -18 -35q-10 0 -35 35q-133 182 -834 1073l-4 -4q2 -55 2 -225q0 -602 41 -795q141 -8 205 -24q14 -4 14 -17q0 -20 -20 -20 q8 0 -81 6t-177 6q-74 0 -145.5 -6t-63.5 -6q-20 0 -21 20zM481 1489q0 45 25 90q33 61 92 61q33 0 132.5 -42t142.5 -42q35 0 56 40t30 40q14 0 14 -16q0 -43 -25 -91q-35 -63 -94 -63q-27 0 -139.5 42t-136.5 42q-39 0 -56.5 -42t-23.5 -42q-16 0 -17 23z" />
<glyph unicode="&#xd2;" horiz-adv-x="1593" d="M106 623q0 299 191 497q199 207 514 207q297 0 485.5 -191.5t188.5 -465.5q0 -299 -191 -498q-199 -207 -514 -207q-297 0 -487 195q-186 188 -187 463zM197 750q0 -285 229 -500q219 -207 479 -207q190 0 340 145.5t150 354.5q0 285 -230 501q-219 205 -479 205 q-188 0 -336 -141q-154 -150 -153 -358zM592 1665q0 12 14 12h125q10 0 19 -12q57 -66 168 -199q12 -14 12 -25q0 -14 -14 -14q-8 0 -31 16q-168 127 -281 205q-12 8 -12 17z" />
<glyph unicode="&#xd3;" horiz-adv-x="1593" d="M106 623q0 299 191 497q199 207 514 207q297 0 485.5 -191.5t188.5 -465.5q0 -299 -191 -498q-199 -207 -514 -207q-297 0 -487 195q-186 188 -187 463zM197 750q0 -285 229 -500q219 -207 479 -207q190 0 340 145.5t150 354.5q0 285 -230 501q-219 205 -479 205 q-188 0 -336 -141q-154 -150 -153 -358zM756 1441q0 10 12 25q68 80 168 199q9 12 19 12h125q14 0 14 -12q0 -8 -12 -17q-113 -80 -281 -205q-23 -16 -31 -16q-14 0 -14 14z" />
<glyph unicode="&#xd4;" horiz-adv-x="1593" d="M106 623q0 299 191 497q199 207 514 207q297 0 485.5 -191.5t188.5 -465.5q0 -299 -191 -498q-199 -207 -514 -207q-297 0 -487 195q-186 188 -187 463zM197 750q0 -285 229 -500q219 -207 479 -207q190 0 340 145.5t150 354.5q0 285 -230 501q-219 205 -479 205 q-188 0 -336 -141q-154 -150 -153 -358zM589 1437q0 8 29 47l145 193h78l158 -191q35 -43 35 -49q0 -10 -13 -10q-10 0 -90 57q-63 45 -129 93q-74 -59 -182 -144q-10 -6 -16 -6q-14 0 -15 10z" />
<glyph unicode="&#xd5;" horiz-adv-x="1593" d="M106 623q0 299 191 497q199 207 514 207q297 0 485.5 -191.5t188.5 -465.5q0 -299 -191 -498q-199 -207 -514 -207q-297 0 -487 195q-186 188 -187 463zM197 750q0 -285 229 -500q219 -207 479 -207q190 0 340 145.5t150 354.5q0 285 -230 501q-219 205 -479 205 q-188 0 -336 -141q-154 -150 -153 -358zM548 1489q0 45 25 90q33 61 92 61q33 0 132.5 -42t142.5 -42q35 0 56 40t30 40q14 0 14 -16q0 -43 -25 -91q-35 -63 -94 -63q-27 0 -139.5 42t-136.5 42q-39 0 -56.5 -42t-23.5 -42q-16 0 -17 23z" />
<glyph unicode="&#xd6;" horiz-adv-x="1593" d="M106 623q0 299 191 497q199 207 514 207q297 0 485.5 -191.5t188.5 -465.5q0 -299 -191 -498q-199 -207 -514 -207q-297 0 -487 195q-186 188 -187 463zM197 750q0 -285 229 -500q219 -207 479 -207q190 0 340 145.5t150 354.5q0 285 -230 501q-219 205 -479 205 q-188 0 -336 -141q-154 -150 -153 -358zM577 1552q0 33 22.5 55.5t55.5 22.5t55.5 -22.5t22.5 -55.5t-22.5 -55.5t-55.5 -22.5t-55.5 22.5t-22.5 55.5zM864 1552q0 33 22.5 55.5t55.5 22.5t55 -22.5t22 -55.5t-22.5 -55.5t-54.5 -22.5q-33 0 -55.5 22.5t-22.5 55.5z" />
<glyph unicode="&#xd7;" d="M184 170l326 324l-326 325l64 64l325 -326l326 326l64 -64l-326 -325l326 -324l-62 -61l-328 325l-327 -325z" />
<glyph unicode="&#xd8;" horiz-adv-x="1593" d="M74 -14l200 196q-168 186 -168 441q0 299 191 497q199 207 514 207q279 0 465 -176l184 180l31 -31l-182 -180q176 -193 176 -450q0 -299 -191 -498q-199 -207 -514 -207q-287 0 -473 187l-203 -197zM197 750q-1 -252 192 -459l776 756q-219 203 -479 202 q-188 0 -336 -141q-154 -150 -153 -358zM418 258q221 -215 487 -215q190 0 340 145.5t150 354.5q0 262 -195 473z" />
<glyph unicode="&#xd9;" horiz-adv-x="1441" d="M39 1284q0 20 20 21q-10 0 77 -6.5t175 -6.5t183.5 6.5t87.5 6.5q20 0 20 -21q0 -12 -14 -16q-66 -16 -211 -25q-8 -137 -8 -686q0 -328 51 -405q92 -139 297 -140q180 0 303 107q88 78 117 264q16 119 16 399q0 115 -31 461q-131 8 -190 25q-14 4 -14 16q0 20 20 21 q-6 0 78 -6.5t160 -6.5q70 0 142.5 6.5t63.5 6.5q20 0 21 -21q0 -12 -14 -16q-55 -18 -160 -25q-31 -346 -31 -461q0 -272 -18 -401q-33 -219 -129 -297q-150 -119 -334 -119q-221 0 -365 127q-82 74 -104 193q-14 84 -15 360q0 461 -8 598q-121 8 -172 25q-14 4 -14 16z M526 1665q0 12 14 12h125q10 0 19 -12q57 -66 168 -199q12 -14 12 -25q0 -14 -14 -14q-8 0 -31 16q-168 127 -281 205q-12 8 -12 17z" />
<glyph unicode="&#xda;" horiz-adv-x="1441" d="M39 1284q0 20 20 21q-10 0 77 -6.5t175 -6.5t183.5 6.5t87.5 6.5q20 0 20 -21q0 -12 -14 -16q-66 -16 -211 -25q-8 -137 -8 -686q0 -328 51 -405q92 -139 297 -140q180 0 303 107q88 78 117 264q16 119 16 399q0 115 -31 461q-131 8 -190 25q-14 4 -14 16q0 20 20 21 q-6 0 78 -6.5t160 -6.5q70 0 142.5 6.5t63.5 6.5q20 0 21 -21q0 -12 -14 -16q-55 -18 -160 -25q-31 -346 -31 -461q0 -272 -18 -401q-33 -219 -129 -297q-150 -119 -334 -119q-221 0 -365 127q-82 74 -104 193q-14 84 -15 360q0 461 -8 598q-121 8 -172 25q-14 4 -14 16z M690 1441q0 10 12 25q68 80 168 199q9 12 19 12h125q14 0 14 -12q0 -8 -12 -17q-113 -80 -281 -205q-23 -16 -31 -16q-14 0 -14 14z" />
<glyph unicode="&#xdb;" horiz-adv-x="1441" d="M39 1284q0 20 20 21q-10 0 77 -6.5t175 -6.5t183.5 6.5t87.5 6.5q20 0 20 -21q0 -12 -14 -16q-66 -16 -211 -25q-8 -137 -8 -686q0 -328 51 -405q92 -139 297 -140q180 0 303 107q88 78 117 264q16 119 16 399q0 115 -31 461q-131 8 -190 25q-14 4 -14 16q0 20 20 21 q-6 0 78 -6.5t160 -6.5q70 0 142.5 6.5t63.5 6.5q20 0 21 -21q0 -12 -14 -16q-55 -18 -160 -25q-31 -346 -31 -461q0 -272 -18 -401q-33 -219 -129 -297q-150 -119 -334 -119q-221 0 -365 127q-82 74 -104 193q-14 84 -15 360q0 461 -8 598q-121 8 -172 25q-14 4 -14 16z M540 1437q0 8 29 47l145 193h78l158 -191q35 -43 35 -49q0 -10 -13 -10q-10 0 -90 57q-63 45 -129 93q-74 -59 -182 -144q-10 -6 -16 -6q-14 0 -15 10z" />
<glyph unicode="&#xdc;" horiz-adv-x="1441" d="M39 1284q0 20 20 21q-10 0 77 -6.5t175 -6.5t183.5 6.5t87.5 6.5q20 0 20 -21q0 -12 -14 -16q-66 -16 -211 -25q-8 -137 -8 -686q0 -328 51 -405q92 -139 297 -140q180 0 303 107q88 78 117 264q16 119 16 399q0 115 -31 461q-131 8 -190 25q-14 4 -14 16q0 20 20 21 q-6 0 78 -6.5t160 -6.5q70 0 142.5 6.5t63.5 6.5q20 0 21 -21q0 -12 -14 -16q-55 -18 -160 -25q-31 -346 -31 -461q0 -272 -18 -401q-33 -219 -129 -297q-150 -119 -334 -119q-221 0 -365 127q-82 74 -104 193q-14 84 -15 360q0 461 -8 598q-121 8 -172 25q-14 4 -14 16z M532 1552q0 33 22.5 55.5t55.5 22.5t55.5 -22.5t22.5 -55.5t-22.5 -55.5t-55.5 -22.5t-55.5 22.5t-22.5 55.5zM819 1552q0 33 22.5 55.5t55.5 22.5t55 -22.5t22 -55.5t-22.5 -55.5t-54.5 -22.5q-33 0 -55.5 22.5t-22.5 55.5z" />
<glyph unicode="&#xdd;" horiz-adv-x="1214" d="M-6 1284q0 20 20 21q-8 0 69 -6.5t150 -6.5q68 0 143 6.5t66 6.5q20 0 21 -21q0 -12 -14 -16q-35 -16 -142 -25q92 -162 342 -553q76 115 174 283q106 186 138 270q-117 8 -170 25q-14 4 -15 16q0 20 21 21q-6 0 66.5 -6.5t137.5 -6.5q61 0 130 6.5t61 6.5q20 0 20 -21 q0 -10 -14 -16q-41 -16 -131 -25q-39 -53 -145 -207q-170 -254 -248 -385q0 -465 8 -602q133 -8 192 -24q15 -5 15 -17q0 -20 -21 -20q10 0 -81 6t-181 6q-88 0 -179 -6t-83 -6q-20 0 -20 20q0 12 14 17q59 16 192 24q8 133 9 559q-168 268 -402 635q-47 4 -129 25 q-14 4 -14 16zM557 1441q0 10 12 25q68 80 168 199q9 12 19 12h125q14 0 14 -12q0 -8 -12 -17q-113 -80 -281 -205q-23 -16 -31 -16q-14 0 -14 14z" />
<glyph unicode="&#xde;" horiz-adv-x="1175" d="M70 8q0 12 14 17q51 16 172 24q8 137 8 598q0 459 -8 596q-121 8 -172 25q-14 4 -14 16q0 20 20 21q-8 0 76 -6.5t166 -6.5t166 6.5t75 6.5q20 0 21 -21q0 -12 -14 -16q-51 -16 -172 -25q-4 -53 -9 -227q115 25 265 24q164 0 280 -59q168 -88 168 -279q0 -199 -182 -313 q-152 -94 -348 -94q2 0 -183 12q0 -168 9 -258q121 -8 172 -24q14 -5 14 -17q0 -20 -21 -20q8 0 -75.5 6t-165.5 6t-166 -6t-76 -6q-20 0 -20 20zM399 354q111 -12 168 -12q168 0 275 68q127 82 127 243q0 156 -115 252q-104 88 -250 88q-78 1 -205 -24v-615z" />
<glyph unicode="&#xdf;" horiz-adv-x="1024" d="M80 2q0 18 20 21q35 12 117 24q6 162 6 580q0 25 -3 190.5t-3 272.5q0 197 99.5 326.5t263.5 129.5q123 0 198 -65q84 -72 84 -209q0 -117 -61 -244q-35 -70 -115 -188q-61 -90 -61 -115q0 -35 65 -111q156 -182 160 -188q82 -105 82 -201q0 -98 -72 -169.5t-166 -71.5 q-33 0 -88 13t-65 13q-18 0 -38 -18.5t-28 -18.5q-14 0 -14 21q0 10 2 52t2 60q0 35 -2 76t-2 45q0 25 16 25t25 -33q14 -55 20 -67q55 -117 172 -117q61 0 103.5 33.5t42.5 91.5q0 78 -159 240.5t-159 242.5q0 47 41 105q100 141 105 147q88 141 88 274q0 121 -64 217 q-70 104 -174 105q-109 0 -145 -164q-20 -94 -21 -305q0 -63 -2 -213t-2 -182q0 -403 8 -639q-92 12 -94 12q-27 0 -87 -6t-73 -6q-23 0 -22 14z" />
<glyph unicode="&#xe0;" horiz-adv-x="833" d="M88 174q0 106 82 168q72 53 170 53q74 0 186 -45q0 137 -16 178q-25 55 -115 56q-72 0 -151.5 -34t-87.5 -34q-20 0 -21 19q0 31 113.5 84t193.5 53q211 0 211 -197v-172q-2 -106 -2 -119q0 -113 31 -112q29 0 71 31.5t46 31.5q12 0 12 -14q0 -31 -72 -84 q-82 -61 -164 -62q-49 0 -49 35v88q-154 -123 -256 -123q-80 0 -131 58.5t-51 140.5zM203 1010q0 12 14 12h125q10 0 19 -12q57 -66 168 -199q12 -14 12 -25q0 -14 -14 -14q-8 0 -31 16q-168 127 -281 205q-12 8 -12 17zM213 195q0 -61 34 -100.5t93 -39.5q75 1 186 97v157 q-100 39 -155 39q-158 0 -158 -153z" />
<glyph unicode="&#xe1;" horiz-adv-x="833" d="M88 174q0 106 82 168q72 53 170 53q74 0 186 -45q0 137 -16 178q-25 55 -115 56q-72 0 -151.5 -34t-87.5 -34q-20 0 -21 19q0 31 113.5 84t193.5 53q211 0 211 -197v-172q-2 -106 -2 -119q0 -113 31 -112q29 0 71 31.5t46 31.5q12 0 12 -14q0 -31 -72 -84 q-82 -61 -164 -62q-49 0 -49 35v88q-154 -123 -256 -123q-80 0 -131 58.5t-51 140.5zM213 195q0 -61 34 -100.5t93 -39.5q75 1 186 97v157q-100 39 -155 39q-158 0 -158 -153zM352 786q0 10 12 25q68 80 168 199q9 12 19 12h125q14 0 14 -12q0 -8 -12 -17 q-113 -80 -281 -205q-23 -16 -31 -16q-14 0 -14 14z" />
<glyph unicode="&#xe2;" horiz-adv-x="833" d="M88 174q0 106 82 168q72 53 170 53q74 0 186 -45q0 137 -16 178q-25 55 -115 56q-72 0 -151.5 -34t-87.5 -34q-20 0 -21 19q0 31 113.5 84t193.5 53q211 0 211 -197v-172q-2 -106 -2 -119q0 -113 31 -112q29 0 71 31.5t46 31.5q12 0 12 -14q0 -31 -72 -84 q-82 -61 -164 -62q-49 0 -49 35v88q-154 -123 -256 -123q-80 0 -131 58.5t-51 140.5zM211 782q0 8 29 47l145 193h78l158 -191q35 -43 35 -49q0 -10 -13 -10q-10 0 -90 57q-63 45 -129 93q-74 -59 -182 -144q-10 -6 -16 -6q-14 0 -15 10zM213 195q0 -61 34 -100.5t93 -39.5 q75 1 186 97v157q-100 39 -155 39q-158 0 -158 -153z" />
<glyph unicode="&#xe3;" horiz-adv-x="833" d="M88 174q0 106 82 168q72 53 170 53q74 0 186 -45q0 137 -16 178q-25 55 -115 56q-72 0 -151.5 -34t-87.5 -34q-20 0 -21 19q0 31 113.5 84t193.5 53q211 0 211 -197v-172q-2 -106 -2 -119q0 -113 31 -112q29 0 71 31.5t46 31.5q12 0 12 -14q0 -31 -72 -84 q-82 -61 -164 -62q-49 0 -49 35v88q-154 -123 -256 -123q-80 0 -131 58.5t-51 140.5zM170 834q0 45 25 90q33 61 92 61q33 0 132.5 -42t142.5 -42q35 0 56 40t30 40q14 0 14 -16q0 -43 -25 -91q-35 -63 -94 -63q-27 0 -139.5 42t-136.5 42q-39 0 -56.5 -42t-23.5 -42 q-16 0 -17 23zM213 195q0 -61 34 -100.5t93 -39.5q75 1 186 97v157q-100 39 -155 39q-158 0 -158 -153z" />
<glyph unicode="&#xe4;" horiz-adv-x="833" d="M88 174q0 106 82 168q72 53 170 53q74 0 186 -45q0 137 -16 178q-25 55 -115 56q-72 0 -151.5 -34t-87.5 -34q-20 0 -21 19q0 31 113.5 84t193.5 53q211 0 211 -197v-172q-2 -106 -2 -119q0 -113 31 -112q29 0 71 31.5t46 31.5q12 0 12 -14q0 -31 -72 -84 q-82 -61 -164 -62q-49 0 -49 35v88q-154 -123 -256 -123q-80 0 -131 58.5t-51 140.5zM199 897q0 33 22.5 55.5t55.5 22.5t55.5 -22.5t22.5 -55.5t-22.5 -55.5t-55.5 -22.5t-55.5 22.5t-22.5 55.5zM213 195q0 -61 34 -100.5t93 -39.5q75 1 186 97v157q-100 39 -155 39 q-158 0 -158 -153zM486 897q0 33 22.5 55.5t55.5 22.5t55 -22.5t22 -55.5t-22.5 -55.5t-54.5 -22.5q-33 0 -55.5 22.5t-22.5 55.5z" />
<glyph unicode="&#xe5;" horiz-adv-x="833" d="M88 174q0 106 82 168q72 53 170 53q74 0 186 -45q0 137 -16 178q-25 55 -115 56q-72 0 -151.5 -34t-87.5 -34q-20 0 -21 19q0 31 113.5 84t193.5 53q211 0 211 -197v-172q-2 -106 -2 -119q0 -113 31 -112q29 0 71 31.5t46 31.5q12 0 12 -14q0 -31 -72 -84 q-82 -61 -164 -62q-49 0 -49 35v88q-154 -123 -256 -123q-80 0 -131 58.5t-51 140.5zM213 195q0 -61 34 -100.5t93 -39.5q75 1 186 97v157q-100 39 -155 39q-158 0 -158 -153zM267 930q0 66 46 111.5t111 45.5q66 0 112 -45.5t46 -111.5t-46 -112t-112 -46t-111.5 46 t-45.5 112zM318 930q0 -43 29.5 -75t76.5 -32q49 0 78 32t29 75t-29 74.5t-78 31.5q-47 0 -76.5 -31.5t-29.5 -74.5z" />
<glyph unicode="&#xe6;" horiz-adv-x="1251" d="M88 174q0 106 82 168q72 53 170 53q80 0 192 -45q0 137 -16 178q-25 55 -115 56q-74 0 -155.5 -34t-89.5 -34q-20 0 -21 19q0 31 113.5 84t193.5 53q141 0 193 -86q96 86 235 86q150 0 230 -90q69 -83 69 -220h-518q0 -106 64 -196q74 -111 196 -111q70 0 123 37 q33 23 66 66q27 37 35 37q14 0 14 -15q0 -49 -72 -117q-92 -88 -223 -88q-174 0 -289 152q-170 -152 -295 -152q-80 0 -131 58.5t-51 140.5zM213 195q0 -139 133 -140q75 1 186 97v157q-100 39 -155 39q-164 0 -164 -153zM651 397l377 11q0 229 -174 229q-180 0 -203 -240z " />
<glyph unicode="&#xe7;" horiz-adv-x="796" d="M82 303q0 152 106.5 260.5t260.5 108.5q88 0 184 -41q25 80 39 80t14 -21q0 -6 -6 -68.5t-6 -103.5q0 -37 3 -86t3 -53q0 -18 -14 -19q-14 0 -27 60q-6 43 -14 88q-29 43 -86 76q-70 41 -140 41q-86 0 -141 -56q-63 -63 -63 -178q0 -147 83.5 -237.5t192.5 -90.5 q82 0 149 61l68 62q16 0 17 -16q0 -35 -72 -104q-92 -90 -213 -91l-58 -88q29 4 44 4q111 0 110 -100q0 -59 -43 -100t-111 -41q-45 0 -85.5 22.5t-40.5 40.5q0 14 14 15q6 0 31.5 -13.5t54.5 -13.5q35 0 58.5 23.5t23.5 54.5q0 59 -72 59q-10 0 -25.5 -2t-17.5 -2 q-12 0 -12 12q0 4 18 33l66 98q-109 8 -193 86q-100 92 -100 240z" />
<glyph unicode="&#xe8;" horiz-adv-x="796" d="M78 307q0 143 86 248q94 117 256 117q150 0 229 -90q70 -83 70 -220h-518q0 -106 63 -196q74 -111 197 -111q70 0 123 37q33 23 65 66q27 37 35 37q14 0 14 -15q0 -49 -71 -117q-92 -88 -224 -88q-147 0 -236 92.5t-89 239.5zM184 1010q0 12 14 12h125q10 0 19 -12 q57 -66 168 -199q12 -14 12 -25q0 -14 -14 -14q-8 0 -31 16q-168 127 -281 205q-12 8 -12 17zM201 401l377 11q0 225 -175 225q-182 0 -202 -236z" />
<glyph unicode="&#xe9;" horiz-adv-x="796" d="M78 307q0 143 86 248q94 117 256 117q150 0 229 -90q70 -83 70 -220h-518q0 -106 63 -196q74 -111 197 -111q70 0 123 37q33 23 65 66q27 37 35 37q14 0 14 -15q0 -49 -71 -117q-92 -88 -224 -88q-147 0 -236 92.5t-89 239.5zM201 401l377 11q0 225 -175 225 q-182 0 -202 -236zM338 786q0 10 12 25q68 80 168 199q9 12 19 12h125q14 0 14 -12q0 -8 -12 -17q-113 -80 -281 -205q-23 -16 -31 -16q-14 0 -14 14z" />
<glyph unicode="&#xea;" horiz-adv-x="796" d="M78 307q0 143 86 248q94 117 256 117q150 0 229 -90q70 -83 70 -220h-518q0 -106 63 -196q74 -111 197 -111q70 0 123 37q33 23 65 66q27 37 35 37q14 0 14 -15q0 -49 -71 -117q-92 -88 -224 -88q-147 0 -236 92.5t-89 239.5zM182 782q0 8 29 47l145 193h78l158 -191 q35 -43 35 -49q0 -10 -13 -10q-10 0 -90 57q-63 45 -129 93q-74 -59 -182 -144q-10 -6 -16 -6q-14 0 -15 10zM201 401l377 11q0 225 -175 225q-182 0 -202 -236z" />
<glyph unicode="&#xeb;" horiz-adv-x="796" d="M78 307q0 143 86 248q94 117 256 117q150 0 229 -90q70 -83 70 -220h-518q0 -106 63 -196q74 -111 197 -111q70 0 123 37q33 23 65 66q27 37 35 37q14 0 14 -15q0 -49 -71 -117q-92 -88 -224 -88q-147 0 -236 92.5t-89 239.5zM180 897q0 33 22.5 55.5t55.5 22.5 t55.5 -22.5t22.5 -55.5t-22.5 -55.5t-55.5 -22.5t-55.5 22.5t-22.5 55.5zM201 401l377 11q0 225 -175 225q-182 0 -202 -236zM467 897q0 33 22.5 55.5t55.5 22.5t55 -22.5t22 -55.5t-22.5 -55.5t-54.5 -22.5q-33 0 -55.5 22.5t-22.5 55.5z" />
<glyph unicode="&#xec;" horiz-adv-x="530" d="M31 1010q0 12 14 12h125q10 0 19 -12q57 -66 168 -199q12 -14 12 -25q0 -14 -14 -14q-8 0 -31 16q-168 127 -281 205q-12 8 -12 17zM51 602q0 14 33 23l94 20q156 37 144 37q16 0 16 -27q0 14 -2 -63q-4 -156 -4 -281q0 -184 6 -264q78 -12 115 -24q20 -2 20 -21 q0 -14 -22 -14q2 0 -60.5 6t-122.5 6q-59 0 -121.5 -6t-60.5 -6q-23 0 -23 14q0 18 21 21q35 12 117 24q6 80 6 264q0 170 -4 281q-16 0 -64.5 -2t-70.5 -2q-16 0 -17 14z" />
<glyph unicode="&#xed;" horiz-adv-x="530" d="M51 602q0 14 33 23l94 20q156 37 144 37q16 0 16 -27q0 14 -2 -63q-4 -156 -4 -281q0 -184 6 -264q78 -12 115 -24q20 -2 20 -21q0 -14 -22 -14q2 0 -60.5 6t-122.5 6q-59 0 -121.5 -6t-60.5 -6q-23 0 -23 14q0 18 21 21q35 12 117 24q6 80 6 264q0 170 -4 281 q-16 0 -64.5 -2t-70.5 -2q-16 0 -17 14zM164 786q0 10 12 25q68 80 168 199q9 12 19 12h125q14 0 14 -12q0 -8 -12 -17q-113 -80 -281 -205q-23 -16 -31 -16q-14 0 -14 14z" />
<glyph unicode="&#xee;" horiz-adv-x="530" d="M39 782q0 8 29 47l145 193h78l158 -191q35 -43 35 -49q0 -10 -13 -10q-10 0 -90 57q-63 45 -129 93q-74 -59 -182 -144q-10 -6 -16 -6q-14 0 -15 10zM51 602q0 14 33 23l94 20q156 37 144 37q16 0 16 -27q0 14 -2 -63q-4 -156 -4 -281q0 -184 6 -264q78 -12 115 -24 q20 -2 20 -21q0 -14 -22 -14q2 0 -60.5 6t-122.5 6q-59 0 -121.5 -6t-60.5 -6q-23 0 -23 14q0 18 21 21q35 12 117 24q6 80 6 264q0 170 -4 281q-16 0 -64.5 -2t-70.5 -2q-16 0 -17 14z" />
<glyph unicode="&#xef;" horiz-adv-x="530" d="M37 897q0 33 22.5 55.5t55.5 22.5t55.5 -22.5t22.5 -55.5t-22.5 -55.5t-55.5 -22.5t-55.5 22.5t-22.5 55.5zM51 602q0 14 33 23l94 20q156 37 144 37q16 0 16 -27q0 14 -2 -63q-4 -156 -4 -281q0 -184 6 -264q78 -12 115 -24q20 -2 20 -21q0 -14 -22 -14q2 0 -60.5 6 t-122.5 6q-59 0 -121.5 -6t-60.5 -6q-23 0 -23 14q0 18 21 21q35 12 117 24q6 80 6 264q0 170 -4 281q-16 0 -64.5 -2t-70.5 -2q-16 0 -17 14zM324 897q0 33 22.5 55.5t55.5 22.5t55 -22.5t22 -55.5t-22.5 -55.5t-54.5 -22.5q-33 0 -55.5 22.5t-22.5 55.5z" />
<glyph unicode="&#xf0;" horiz-adv-x="948" d="M92 285q0 174 146 286q129 100 297 101q90 0 163 -58l4 4q-68 211 -172 379l-239 -86l-17 45l232 80q-102 184 -361 412l33 27q319 -211 438 -400l250 84l15 -45l-238 -78q213 -322 213 -590q0 -242 -127 -364q-111 -106 -305 -107q-145 0 -236 78q-96 82 -96 232z M221 332q0 -143 62 -226q65 -90 190 -90q129 0 195 86q59 78 59 209q0 319 -240 320q-119 0 -192.5 -78t-73.5 -221z" />
<glyph unicode="&#xf1;" horiz-adv-x="1024" d="M53 602q0 20 74 37q43 8 88 16q111 27 109 27q20 0 20 -27q0 -6 -2 -47t-2 -55q217 119 315 119q190 0 191 -185q0 -31 -2 -90t-2 -86q0 -184 6 -264q78 -12 115 -24q20 -3 20 -21q0 -14 -22 -14q2 0 -60.5 6t-122.5 6q-59 0 -121.5 -6t-60.5 -6q-23 0 -23 14q0 18 21 21 q35 12 117 24q6 80 6 264q0 150 -19 201q-29 82 -123 82q-92 0 -233 -84v-98q-2 -66 -2 -101q0 -211 6 -264q78 -12 115 -24q20 -2 20 -21q0 -14 -22 -14q2 0 -60.5 6t-122.5 6q-59 0 -121.5 -6t-60.5 -6q-23 0 -22 14q0 18 20 21q35 12 117 24q6 80 6 264q0 199 -6 281 q-6 0 -64.5 -2t-72.5 -2q-18 0 -19 14zM264 834q0 45 25 90q33 61 92 61q33 0 132.5 -42t142.5 -42q35 0 56 40t30 40q14 0 14 -16q0 -43 -25 -91q-35 -63 -94 -63q-27 0 -139.5 42t-136.5 42q-39 0 -56.5 -42t-23.5 -42q-16 0 -17 23z" />
<glyph unicode="&#xf2;" horiz-adv-x="948" d="M92 285q0 174 146 286q129 101 297 101q141 0 227 -74q94 -80 94 -227q0 -182 -124 -289t-308 -107q-145 0 -236 78q-96 82 -96 232zM221 332q0 -143 62 -226q66 -90 190 -90q129 0 195 86q59 78 59 209q0 319 -240 320q-119 0 -192.5 -78t-73.5 -221zM260 1010 q0 12 14 12h125q10 0 19 -12q57 -66 168 -199q12 -14 12 -25q0 -14 -14 -14q-8 0 -31 16q-168 127 -281 205q-12 8 -12 17z" />
<glyph unicode="&#xf3;" horiz-adv-x="948" d="M92 285q0 174 146 286q129 101 297 101q141 0 227 -74q94 -80 94 -227q0 -182 -124 -289t-308 -107q-145 0 -236 78q-96 82 -96 232zM221 332q0 -143 62 -226q66 -90 190 -90q129 0 195 86q59 78 59 209q0 319 -240 320q-119 0 -192.5 -78t-73.5 -221zM414 786 q0 10 12 25q68 80 168 199q9 12 19 12h125q14 0 14 -12q0 -8 -12 -17q-113 -80 -281 -205q-23 -16 -31 -16q-14 0 -14 14z" />
<glyph unicode="&#xf4;" horiz-adv-x="948" d="M92 285q0 174 146 286q129 101 297 101q141 0 227 -74q94 -80 94 -227q0 -182 -124 -289t-308 -107q-145 0 -236 78q-96 82 -96 232zM221 332q0 -143 62 -226q66 -90 190 -90q129 0 195 86q59 78 59 209q0 319 -240 320q-119 0 -192.5 -78t-73.5 -221zM268 782q0 8 29 47 l145 193h78l158 -191q35 -43 35 -49q0 -10 -13 -10q-10 0 -90 57q-63 45 -129 93q-74 -59 -182 -144q-10 -6 -16 -6q-14 0 -15 10z" />
<glyph unicode="&#xf5;" horiz-adv-x="948" d="M92 285q0 174 146 286q129 101 297 101q141 0 227 -74q94 -80 94 -227q0 -182 -124 -289t-308 -107q-145 0 -236 78q-96 82 -96 232zM221 332q0 -143 62 -226q66 -90 190 -90q129 0 195 86q59 78 59 209q0 319 -240 320q-119 0 -192.5 -78t-73.5 -221zM227 834 q0 45 25 90q33 61 92 61q33 0 132.5 -42t142.5 -42q35 0 56 40t30 40q14 0 14 -16q0 -43 -25 -91q-35 -63 -94 -63q-27 0 -139.5 42t-136.5 42q-39 0 -56.5 -42t-23.5 -42q-16 0 -17 23z" />
<glyph unicode="&#xf6;" horiz-adv-x="948" d="M92 285q0 174 146 286q129 101 297 101q141 0 227 -74q94 -80 94 -227q0 -182 -124 -289t-308 -107q-145 0 -236 78q-96 82 -96 232zM221 332q0 -143 62 -226q66 -90 190 -90q129 0 195 86q59 78 59 209q0 319 -240 320q-119 0 -192.5 -78t-73.5 -221zM256 897 q0 33 22.5 55.5t55.5 22.5t55.5 -22.5t22.5 -55.5t-22.5 -55.5t-55.5 -22.5t-55.5 22.5t-22.5 55.5zM543 897q0 33 22.5 55.5t55.5 22.5t55 -22.5t22 -55.5t-22.5 -55.5t-54.5 -22.5q-33 0 -55.5 22.5t-22.5 55.5z" />
<glyph unicode="&#xf7;" d="M78 451v84h983v-84h-983zM492 250q0 33 22.5 55.5t54.5 22.5q33 0 55.5 -22.5t22.5 -55.5t-22.5 -55.5t-55.5 -22.5t-55 22.5t-22 55.5zM492 735q0 33 22.5 55.5t54.5 22.5q33 0 55.5 -22.5t22.5 -55.5t-22.5 -55.5t-55.5 -22.5t-55 22.5t-22 55.5z" />
<glyph unicode="&#xf8;" horiz-adv-x="948" d="M76 4l84 76q-68 80 -68 205q0 174 146 286q129 100 297 101q133 0 215 -64l79 70l27 -29l-74 -67q74 -80 74 -211q0 -182 -124 -289t-308 -107q-147 0 -236 78l-86 -78zM221 332q0 -92 31 -170l418 375q-61 94 -183 94q-119 0 -192.5 -78t-73.5 -221zM270 127 q63 -111 203 -111q129 0 195 86q59 78 59 209q0 105 -39 189z" />
<glyph unicode="&#xf9;" horiz-adv-x="948" d="M20 592q0 18 64 35q41 10 80 18q90 27 104 27q20 0 21 -27q0 -6 -2 -47t-2 -55v-154q-2 -150 -2 -209q0 -131 143 -131q66 0 127 27q14 6 94 51v176q0 197 -6 279q-6 0 -55 -2t-64 -2q-18 0 -18 14q0 20 63 37q41 8 80 16l23 6q72 20 88 21q20 0 20 -27q0 -8 -2 -48 t-2 -54q-2 -51 -2 -240q0 -178 8 -256q82 -12 117 -24q20 -2 21 -21q0 -14 -23 -14l-55 6q-56 6 -95 6q-26 0 -98 -12v104q-190 -117 -323 -117q-170 0 -168 187q2 180 2 239q0 145 -2 181q-6 0 -54.5 -2t-62.5 -2q-18 0 -19 14zM260 1010q0 12 14 12h125q10 0 19 -12 q57 -66 168 -199q12 -14 12 -25q0 -14 -14 -14q-8 0 -31 16q-168 127 -281 205q-12 8 -12 17z" />
<glyph unicode="&#xfa;" horiz-adv-x="948" d="M20 592q0 18 64 35q41 10 80 18q90 27 104 27q20 0 21 -27q0 -6 -2 -47t-2 -55v-154q-2 -150 -2 -209q0 -131 143 -131q66 0 127 27q14 6 94 51v176q0 197 -6 279q-6 0 -55 -2t-64 -2q-18 0 -18 14q0 20 63 37q41 8 80 16l23 6q72 20 88 21q20 0 20 -27q0 -8 -2 -48 t-2 -54q-2 -51 -2 -240q0 -178 8 -256q82 -12 117 -24q20 -2 21 -21q0 -14 -23 -14l-55 6q-56 6 -95 6q-26 0 -98 -12v104q-190 -117 -323 -117q-170 0 -168 187q2 180 2 239q0 145 -2 181q-6 0 -54.5 -2t-62.5 -2q-18 0 -19 14zM383 786q0 10 12 25q68 80 168 199 q9 12 19 12h125q14 0 14 -12q0 -8 -12 -17q-113 -80 -281 -205q-23 -16 -31 -16q-14 0 -14 14z" />
<glyph unicode="&#xfb;" horiz-adv-x="948" d="M20 592q0 18 64 35q41 10 80 18q90 27 104 27q20 0 21 -27q0 -6 -2 -47t-2 -55v-154q-2 -150 -2 -209q0 -131 143 -131q66 0 127 27q14 6 94 51v176q0 197 -6 279q-6 0 -55 -2t-64 -2q-18 0 -18 14q0 20 63 37q41 8 80 16l23 6q72 20 88 21q20 0 20 -27q0 -8 -2 -48 t-2 -54q-2 -51 -2 -240q0 -178 8 -256q82 -12 117 -24q20 -2 21 -21q0 -14 -23 -14l-55 6q-56 6 -95 6q-26 0 -98 -12v104q-190 -117 -323 -117q-170 0 -168 187q2 180 2 239q0 145 -2 181q-6 0 -54.5 -2t-62.5 -2q-18 0 -19 14zM268 782q0 8 29 47l145 193h78l158 -191 q35 -43 35 -49q0 -10 -13 -10q-10 0 -90 57q-63 45 -129 93q-74 -59 -182 -144q-10 -6 -16 -6q-14 0 -15 10z" />
<glyph unicode="&#xfc;" horiz-adv-x="948" d="M20 592q0 18 64 35q41 10 80 18q90 27 104 27q20 0 21 -27q0 -6 -2 -47t-2 -55v-154q-2 -150 -2 -209q0 -131 143 -131q66 0 127 27q14 6 94 51v176q0 197 -6 279q-6 0 -55 -2t-64 -2q-18 0 -18 14q0 20 63 37q41 8 80 16l23 6q72 20 88 21q20 0 20 -27q0 -8 -2 -48 t-2 -54q-2 -51 -2 -240q0 -178 8 -256q82 -12 117 -24q20 -2 21 -21q0 -14 -23 -14l-55 6q-56 6 -95 6q-26 0 -98 -12v104q-190 -117 -323 -117q-170 0 -168 187q2 180 2 239q0 145 -2 181q-6 0 -54.5 -2t-62.5 -2q-18 0 -19 14zM256 897q0 33 22.5 55.5t55.5 22.5 t55.5 -22.5t22.5 -55.5t-22.5 -55.5t-55.5 -22.5t-55.5 22.5t-22.5 55.5zM543 897q0 33 22.5 55.5t55.5 22.5t55 -22.5t22 -55.5t-22.5 -55.5t-54.5 -22.5q-33 0 -55.5 22.5t-22.5 55.5z" />
<glyph unicode="&#xfd;" horiz-adv-x="833" d="M8 645q0 14 23 14q-2 0 54 -6t110 -6q49 0 97 6t46 6q23 0 22 -14q0 -18 -20 -20q-37 -14 -80 -25q47 -160 191 -485q125 309 170 485q-14 2 -74 25q-20 8 -21 20q0 14 23 14l46 -6t87 -6q39 0 77 6t36 6q23 0 22 -14q0 -14 -20 -20q-43 -20 -74 -25q-64 -152 -252 -549 q-131 -256 -192 -344q-70 -100 -125 -100q-92 0 -93 90q0 88 86 88q47 0 80 -45q82 90 154 229q-90 225 -231 555q-10 25 -33 76q-33 8 -88 25q-20 2 -21 20zM367 786q0 10 12 25q68 80 168 199q9 12 19 12h125q14 0 14 -12q0 -8 -12 -17q-113 -80 -281 -205 q-23 -16 -31 -16q-14 0 -14 14z" />
<glyph unicode="&#xfe;" horiz-adv-x="872" d="M-27 1442q0 25 97.5 80t158.5 55q37 0 37 -64l-2 -974q150 133 277 133q125 0 190 -103q53 -86 53 -213q0 -156 -97 -268.5t-220 -112.5q-72 0 -127 29q-19 8 -78 51q0 -168 6 -389q150 -14 207 -24q20 -4 21 -21q0 -14 -23 -14q4 0 -90 6t-184 6q-59 0 -122 -6t-61 -6 q-23 0 -22 14q0 18 20 21q35 12 117 24q6 221 6 735q0 696 -14 967q-4 94 -41 94q-23 0 -54.5 -19.5t-39.5 -19.5q-14 0 -15 19zM262 131q115 -111 205 -111q176 0 176 293q0 281 -176 281q-96 0 -188 -94l-17 -17v-352z" />
<glyph unicode="&#xff;" horiz-adv-x="833" d="M8 645q0 14 23 14q-2 0 54 -6t110 -6q49 0 97 6t46 6q23 0 22 -14q0 -18 -20 -20q-37 -14 -80 -25q47 -160 191 -485q125 309 170 485q-14 2 -74 25q-20 8 -21 20q0 14 23 14l46 -6t87 -6q39 0 77 6t36 6q23 0 22 -14q0 -14 -20 -20q-43 -20 -74 -25q-64 -152 -252 -549 q-131 -256 -192 -344q-70 -100 -125 -100q-92 0 -93 90q0 88 86 88q47 0 80 -45q82 90 154 229q-90 225 -231 555q-10 25 -33 76q-33 8 -88 25q-20 2 -21 20zM229 897q0 33 22.5 55.5t55.5 22.5t55.5 -22.5t22.5 -55.5t-22.5 -55.5t-55.5 -22.5t-55.5 22.5t-22.5 55.5z M516 897q0 33 22.5 55.5t55.5 22.5t55 -22.5t22 -55.5t-22.5 -55.5t-54.5 -22.5q-33 0 -55.5 22.5t-22.5 55.5z" />
<glyph unicode="&#x152;" horiz-adv-x="2009" d="M100 623q0 299 191 497q199 207 514 207q53 0 153.5 -17.5t151.5 -17.5q399 0 709 35q20 86 41 86q16 0 16 -14q0 -6 -6 -72.5t-6 -99.5q0 -27 6 -107t6 -86q0 -29 -23 -28q-25 0 -43 186q-205 53 -483 53h-65q-49 -2 -70 -2q-14 -137 -14 -563h39q340 0 538 49 q12 147 49 148q16 0 17 -21q0 -4 -6.5 -85t-6.5 -114q0 -39 6.5 -118.5t6.5 -89.5q0 -23 -17 -23q-31 0 -49 174q-184 33 -538 33h-39q0 -446 14 -584q27 -2 80 -2q301 0 553 76q12 168 43 168q20 0 20 -21q0 -14 -6 -93t-6 -114q0 -20 6 -73t6 -70q0 -18 -20 -18 q-14 0 -37 63q-215 35 -721 35q-57 0 -169 -17.5t-167 -17.5q-297 0 -487 195q-186 188 -187 463zM190 750q0 -285 230 -500q219 -207 479 -207q35 0 133 20q0 59 5 268.5t5 301.5q0 117 -4 315.5t-4 218.5q-147 82 -354 82q-188 0 -336 -141q-154 -150 -154 -358z" />
<glyph unicode="&#x153;" horiz-adv-x="1441" d="M92 285q0 174 146 286q129 100 297 101q186 0 272 -119q86 119 258 119q150 0 229 -90q70 -83 70 -220h-518q0 -106 63 -196q74 -111 197 -111q70 0 123 37q33 23 65 66q27 37 35 37q14 0 14 -15q0 -49 -71 -117q-92 -88 -223 -88q-193 0 -281 144q-125 -143 -344 -144 q-145 0 -236 78q-96 82 -96 232zM221 332q0 -143 62 -226q66 -90 190 -90q129 0 195 86q59 78 59 209q0 319 -240 320q-119 0 -192.5 -78t-73.5 -221zM846 397l377 11q0 229 -174 229q-180 0 -203 -240z" />
<glyph unicode="&#x178;" horiz-adv-x="1214" d="M-6 1284q0 20 20 21q-8 0 69 -6.5t150 -6.5q68 0 143 6.5t66 6.5q20 0 21 -21q0 -12 -14 -16q-35 -16 -142 -25q92 -162 342 -553q76 115 174 283q106 186 138 270q-117 8 -170 25q-14 4 -15 16q0 20 21 21q-6 0 66.5 -6.5t137.5 -6.5q61 0 130 6.5t61 6.5q20 0 20 -21 q0 -10 -14 -16q-41 -16 -131 -25q-39 -53 -145 -207q-170 -254 -248 -385q0 -465 8 -602q133 -8 192 -24q15 -5 15 -17q0 -20 -21 -20q10 0 -81 6t-181 6q-88 0 -179 -6t-83 -6q-20 0 -20 20q0 12 14 17q59 16 192 24q8 133 9 559q-168 268 -402 635q-47 4 -129 25 q-14 4 -14 16zM420 1552q0 33 22.5 55.5t55.5 22.5t55.5 -22.5t22.5 -55.5t-22.5 -55.5t-55.5 -22.5t-55.5 22.5t-22.5 55.5zM707 1552q0 33 22.5 55.5t55.5 22.5t55 -22.5t22 -55.5t-22.5 -55.5t-54.5 -22.5q-33 0 -55.5 22.5t-22.5 55.5z" />
<glyph unicode="&#x2c6;" horiz-adv-x="614" d="M100 782q0 8 29 47l145 193h78l158 -191q35 -43 35 -49q0 -10 -13 -10q-10 0 -90 57q-63 45 -129 93q-74 -59 -182 -144q-10 -6 -16 -6q-14 0 -15 10z" />
<glyph unicode="&#x2dc;" horiz-adv-x="614" d="M59 834q0 45 25 90q33 61 92 61q33 0 132.5 -42t142.5 -42q35 0 56 40t30 40q14 0 14 -16q0 -43 -25 -91q-35 -63 -94 -63q-27 0 -139.5 42t-136.5 42q-39 0 -56.5 -42t-23.5 -42q-16 0 -17 23z" />
<glyph unicode="&#x2000;" horiz-adv-x="871" />
<glyph unicode="&#x2001;" horiz-adv-x="1742" />
<glyph unicode="&#x2002;" horiz-adv-x="871" />
<glyph unicode="&#x2003;" horiz-adv-x="1742" />
<glyph unicode="&#x2004;" horiz-adv-x="580" />
<glyph unicode="&#x2005;" horiz-adv-x="435" />
<glyph unicode="&#x2006;" horiz-adv-x="290" />
<glyph unicode="&#x2007;" horiz-adv-x="290" />
<glyph unicode="&#x2008;" horiz-adv-x="217" />
<glyph unicode="&#x2009;" horiz-adv-x="348" />
<glyph unicode="&#x200a;" horiz-adv-x="96" />
<glyph unicode="&#x2010;" horiz-adv-x="796" d="M109 270v107h579v-107h-579z" />
<glyph unicode="&#x2011;" horiz-adv-x="796" d="M109 270v107h579v-107h-579z" />
<glyph unicode="&#x2012;" horiz-adv-x="796" d="M109 270v107h579v-107h-579z" />
<glyph unicode="&#x2013;" d="M100 276v95h936v-95h-936z" />
<glyph unicode="&#x2014;" horiz-adv-x="2048" d="M100 276v95h1848v-95h-1848z" />
<glyph unicode="&#x2018;" horiz-adv-x="303" d="M41 1006q0 74 88 202q82 119 111 119q18 0 18 -18q0 -4 -43 -93.5t-43 -156.5q0 -70 49 -70h23q18 0 18 -16q0 -18 -46 -39t-83 -21q-92 0 -92 93z" />
<glyph unicode="&#x2019;" horiz-adv-x="303" d="M41 1268q0 18 46 38.5t83 20.5q92 0 92 -92q0 -74 -88 -203q-82 -119 -111 -119q-18 0 -18 19q0 4 43 93t43 157q0 69 -49 69h-23q-18 0 -18 17z" />
<glyph unicode="&#x201a;" horiz-adv-x="303" d="M41 131q0 18 46 38.5t83 20.5q92 0 92 -92q0 -74 -88 -202q-82 -119 -111 -119q-18 0 -18 18q0 4 43 93t43 157q0 70 -49 70h-23q-18 0 -18 16z" />
<glyph unicode="&#x201c;" horiz-adv-x="606" d="M74 1004q0 76 90 204q84 119 108 119q18 0 19 -18q0 -4 -42 -93.5t-42 -156.5q0 -70 47 -70q23 0 55 17q0 74 88 202q82 119 111 119q18 0 18 -18q0 -4 -43 -93.5t-43 -156.5q0 -70 49 -70h23q18 0 18 -16q0 -18 -46 -39t-83 -21q-53 0 -84 50q-31 -14 -59 -27 q-53 -23 -92 -23q-92 0 -92 91z" />
<glyph unicode="&#x201d;" horiz-adv-x="606" d="M74 1268q0 18 46 38.5t83 20.5q53 0 84 -49q31 14 59 29q53 20 92 20q92 0 92 -90q0 -76 -90 -205q-84 -119 -108 -119q-18 0 -19 19q0 4 42 93t42 157q0 70 -47 69q-23 0 -55 -16q0 -74 -88 -203q-82 -119 -111 -119q-18 0 -18 19q0 4 43 93t43 157q0 69 -49 69h-23 q-18 0 -18 17z" />
<glyph unicode="&#x201e;" horiz-adv-x="606" d="M74 131q0 18 46 38.5t83 20.5q53 0 84 -49q31 14 59 29q53 20 92 20q92 0 92 -90q0 -76 -90 -204q-84 -119 -108 -119q-18 0 -19 18q0 4 42 93t42 157q0 70 -47 70q-23 0 -55 -17q0 -74 -88 -202q-82 -119 -111 -119q-18 0 -18 18q0 4 43 93t43 157q0 70 -49 70h-23 q-18 0 -18 16z" />
<glyph unicode="&#x2022;" horiz-adv-x="1024" d="M289 643q0 92 65.5 158.5t157.5 66.5q90 0 156.5 -66.5t66.5 -158.5q0 -90 -66.5 -155.5t-156.5 -65.5q-92 0 -157.5 65.5t-65.5 155.5z" />
<glyph unicode="&#x2026;" horiz-adv-x="2048" d="M242 76q0 41 29.5 70.5t70.5 29.5t70.5 -29.5t29.5 -70.5t-29.5 -71t-70.5 -30t-70.5 30t-29.5 71zM924 76q0 41 29.5 70.5t70.5 29.5t70.5 -29.5t29.5 -70.5t-29.5 -71t-70.5 -30t-70.5 30t-29.5 71zM1606 76q0 41 29.5 70.5t70.5 29.5t70.5 -29.5t29.5 -70.5t-29.5 -71 t-70.5 -30t-70.5 30t-29.5 71z" />
<glyph unicode="&#x202f;" horiz-adv-x="348" />
<glyph unicode="&#x2039;" horiz-adv-x="454" d="M92 324q0 20 35 59q66 76 225 246q25 25 33 24q12 0 12 -12q0 -2 -10 -20q-71 -113 -184 -297q76 -121 184 -297q10 -18 10 -21q0 -12 -12 -12q-8 0 -33 24q-59 59 -225 246q-35 39 -35 60z" />
<glyph unicode="&#x203a;" horiz-adv-x="454" d="M57 6q0 2 11 21q74 115 184 297q-76 121 -184 297q-10 18 -11 20q0 12 13 12q8 0 32 -24q59 -59 226 -246q35 -39 34 -59q1 -21 -34 -60q-66 -76 -226 -246q-25 -25 -32 -24q-12 0 -13 12z" />
<glyph unicode="&#x205f;" horiz-adv-x="435" />
<glyph unicode="&#x2122;" horiz-adv-x="1441" d="M109 1219l10 208h479l10 -208h-37q-37 98 -49 116q-31 39 -110 54v-392q0 -61 22 -77q12 -12 76 -19v-35h-313v35q63 6 79 17q29 18 29 79v392q-80 -14 -110 -54q-12 -18 -50 -116h-36zM635 866v35q59 10 76.5 24.5t17.5 71.5v320q0 49 -10 58t-60 14v38h205l113 -370h4 l129 370h221v-38q-55 -6 -67 -17q-18 -14 -19 -67v-308q0 -61 17 -77q10 -12 59 -19v-35h-254v35q43 8 57.5 23.5t14.5 72.5v377h-4l-172 -508h-33l-150 490h-4v-359q0 -57 15 -75q8 -12 45 -21v-35h-201z" />
<glyph unicode="&#x25fc;" horiz-adv-x="655" d="M0 0v655h655v-655h-655z" />
</font>
</defs>
</svg>
